<svg width="24" height="28" viewBox="0 0 24 28" fill="none" xmlns="http://www.w3.org/2000/svg">
<g id="Layer_1" clip-path="url(#clip0_192_796)">
<path id="Vector" d="M23.7913 5.70535C17.6997 5.17956 17.3236 0 17.3236 0H13.526V19.2173C13.526 21.394 11.7583 23.1586 9.57772 23.1586C7.39714 23.1586 5.6294 21.394 5.6294 19.2173C5.6294 16.9994 7.43052 15.201 9.65283 15.201H10.7809V10.5468H9.39461C4.63631 10.5468 0.779297 14.3974 0.779297 19.1467C0.779297 24.0362 4.7502 28 9.64841 28C14.5466 28 18.5175 24.0362 18.5175 19.1467V9.43934C21.0275 11.2034 23.7913 11.4847 23.7913 11.4847V5.70437V5.70535Z" fill="white"/>
</g>
<defs>
<clipPath id="clip0_192_796">
<rect width="23.012" height="28" fill="white" transform="translate(0.779297)"/>
</clipPath>
</defs>
</svg>
