<svg width="165" height="28" viewBox="0 0 165 28" fill="none" xmlns="http://www.w3.org/2000/svg">
<g id="Group">
<path id="Vector" d="M162.017 5.07771H161.73V3.72625H161.215V3.46338H162.53V3.72625H162.017V5.07771Z" fill="white"/>
<path id="Vector_2" d="M163.63 4.68171H163.62L163.114 3.9251V5.07771H162.831V3.46338H163.134L163.629 4.22673L164.123 3.46338H164.426V5.07771H164.143V3.92004L163.63 4.68171Z" fill="white"/>
<path id="Vector_3" d="M63.5961 15.6416L58.6133 7.47559H62.7529L65.4501 12.231L68.1659 7.47559H72.231L67.2482 15.586V20.525H63.5961V15.6416Z" fill="white"/>
<path id="Vector_4" d="M73.3532 7.47559H80.0783C81.7257 7.47559 82.8889 7.88507 83.6559 8.6501C84.1807 9.1708 84.4974 9.86169 84.4974 10.7565V10.7936C84.4974 12.3051 83.6356 13.1982 82.4741 13.7021C84.0656 14.2244 85.0781 15.1192 85.0781 16.8903V16.9273C85.0781 19.1652 83.2428 20.525 80.1139 20.525H73.3516V7.47559H73.3532ZM79.1793 12.6775C80.2849 12.6775 80.9029 12.3051 80.9029 11.5401V11.503C80.9029 10.7936 80.3408 10.3841 79.2555 10.3841H76.8953V12.6775H79.1793ZM79.7042 17.6182C80.8098 17.6182 81.4446 17.1902 81.4446 16.4252V16.3881C81.4446 15.6804 80.8843 15.2136 79.6652 15.2136H76.8936V17.6182H79.7042Z" fill="white"/>
<path id="Vector_5" d="M86.7461 7.47559H97.2925V10.5526H90.344V12.5275H96.6373V15.3804H90.344V17.4497H97.3857V20.525H86.7461V7.47559Z" fill="white"/>
<path id="Vector_6" d="M99.2393 7.47559H105.439C107.444 7.47559 108.831 7.99797 109.711 8.89276C110.48 9.63758 110.873 10.6453 110.873 11.931V11.9698C110.873 13.9632 109.804 15.2877 108.174 15.9769L111.303 20.525H107.107L104.466 16.5735H102.874V20.525H99.241V7.47559H99.2393ZM105.27 13.7391C106.506 13.7391 107.219 13.1426 107.219 12.1922V12.1551C107.219 11.1289 106.471 10.6082 105.252 10.6082H102.873V13.7391H105.27Z" fill="white"/>
<path id="Vector_7" d="M112.706 7.47559H116.546L119.675 12.5275L122.802 7.47559H126.642V20.525H123.027V13.0314L119.675 18.1389H119.599L116.265 13.0685V20.525H112.706V7.47559Z" fill="white"/>
<path id="Vector_8" d="M132.692 7.47559H129.04V20.525H132.692V7.47559Z" fill="white"/>
<path id="Vector_9" d="M135.09 7.47559H138.479L143.875 14.3744V7.47559H147.472V20.525H144.287L138.688 13.3667V20.525H135.09V7.47559Z" fill="white"/>
<path id="Vector_10" d="M157.236 7.47554H149.867V10.6823H157.29C159.462 10.6823 160.905 11.8939 160.905 13.98V14.0188C160.905 16.1252 159.462 17.3166 157.29 17.3166H149.867V20.5233H157.158C161.88 20.5233 164.633 17.7277 164.633 13.9598V13.9227C164.633 10.1565 161.917 7.47217 157.234 7.47217" fill="white"/>
<path id="Vector_11" d="M50.1236 20.5268H57.4903V17.32H50.0677C47.8954 17.32 46.4512 16.1084 46.4512 14.0223V13.9835C46.4512 11.8771 47.8937 10.6858 50.0677 10.6858H57.4903V7.479H50.1997C45.4776 7.479 42.7246 10.2746 42.7246 14.0408V14.0779C42.7246 17.8441 45.4404 20.5285 50.1236 20.5285" fill="white"/>
<path id="Vector_12" d="M27.2566 8.11741H16.5781V12.7649H27.3362C30.4854 12.7649 32.5764 14.5225 32.5764 17.5473V17.5742H37.9792V17.4664C37.9792 12.0083 34.0426 8.11572 27.2566 8.11572" fill="white"/>
<path id="Vector_13" d="M16.7113 0.969238C9.88969 0.969238 5.90404 4.99495 5.87695 10.426H11.2797V10.3974C11.2797 7.34399 13.3707 5.61676 16.5216 5.61676H27.2797V0.969238H16.7113Z" fill="white"/>
<path id="Vector_14" d="M32.5622 17.5742C32.5368 23.007 28.5495 27.031 21.7279 27.031H11.1611V22.3835H21.9192C25.0684 22.3835 27.1595 20.6546 27.1595 17.6029V17.5742H32.5622Z" fill="white"/>
<path id="Vector_15" d="M21.862 15.2356V19.8831H11.1835C4.39576 19.8831 0.460938 15.9922 0.460938 10.5324V10.4263H5.86371V10.4549C5.86371 13.4797 7.95471 15.2356 11.1056 15.2356H21.8637H21.862Z" fill="white"/>
</g>
</svg>
