<svg width="111" height="46" viewBox="0 0 111 46" fill="none" xmlns="http://www.w3.org/2000/svg">
<g id="Group">
<path id="Vector" d="M91.4018 16.2207C91.7658 16.2207 92.0604 15.9258 92.0604 15.5652V10.5891C92.0604 10.2268 91.7641 9.93359 91.4018 9.93359C91.0395 9.93359 90.7432 10.2285 90.7432 10.5891V15.5652C90.7432 15.9258 91.0395 16.2207 91.4018 16.2207Z" fill="white"/>
<path id="Vector_2" d="M91.4018 22.0093C91.0378 22.0093 90.7432 22.3042 90.7432 22.6665V34.1505C90.7432 34.5128 91.0395 34.806 91.4018 34.806C91.7641 34.806 92.0604 34.5128 92.0604 34.1505V22.6665C92.0604 22.3042 91.7641 22.0093 91.4018 22.0093Z" fill="white"/>
<path id="Vector_3" d="M91.4013 17.2402C92.0125 17.2402 92.5086 17.734 92.5086 18.3423V19.8892C92.5086 20.4975 92.0125 20.9913 91.4013 20.9913C90.79 20.9913 90.2939 20.4975 90.2939 19.8892V18.3423C90.2939 17.734 90.79 17.2402 91.4013 17.2402Z" fill="white"/>
<path id="Vector_4" d="M86.7104 18.5091C87.0744 18.5091 87.369 18.2142 87.369 17.8535V6.3308C87.369 5.9685 87.0727 5.67529 86.7104 5.67529C86.3481 5.67529 86.0518 5.97019 86.0518 6.3308V17.8535C86.0518 18.2158 86.3481 18.5091 86.7104 18.5091Z" fill="white"/>
<path id="Vector_5" d="M100.784 15.9531C100.42 15.9531 100.125 16.248 100.125 16.6086V28.1314C100.125 28.4937 100.421 28.7869 100.784 28.7869C101.146 28.7869 101.442 28.492 101.442 28.1314V16.6086C101.442 16.2463 101.146 15.9531 100.784 15.9531Z" fill="white"/>
<path id="Vector_6" d="M110.164 18.5835C109.8 18.5835 109.506 18.8784 109.506 19.239V24.2151C109.506 24.5757 109.802 24.8706 110.164 24.8706C110.527 24.8706 110.823 24.5757 110.823 24.2151V19.239C110.823 18.8767 110.527 18.5835 110.164 18.5835Z" fill="white"/>
<path id="Vector_7" d="M77.3285 18.5835C76.9645 18.5835 76.6699 18.8784 76.6699 19.239V24.2151C76.6699 24.5757 76.9662 24.8706 77.3285 24.8706C77.6909 24.8706 77.9872 24.5757 77.9872 24.2151V19.239C77.9872 18.8767 77.6909 18.5835 77.3285 18.5835Z" fill="white"/>
<path id="Vector_8" d="M77.3285 12.7967C77.6926 12.7967 77.9872 12.5035 77.9872 12.1412V0.655506C77.9872 0.293208 77.6909 0 77.3285 0C76.9662 0 76.6699 0.294893 76.6699 0.655506V12.1395C76.6699 12.5018 76.9662 12.795 77.3285 12.795V12.7967Z" fill="white"/>
<path id="Vector_9" d="M82.018 15.9531C81.654 15.9531 81.3594 16.248 81.3594 16.6086V28.1314C81.3594 28.4937 81.6557 28.7869 82.018 28.7869C82.3803 28.7869 82.6766 28.492 82.6766 28.1314V16.6086C82.6766 16.2463 82.3803 15.9531 82.018 15.9531Z" fill="white"/>
<path id="Vector_10" d="M82.018 7.05737C82.382 7.05737 82.6766 6.76247 82.6766 6.40186V2.35424C82.6766 1.99194 82.3803 1.69873 82.018 1.69873C81.6557 1.69873 81.3594 1.99362 81.3594 2.35424V6.40186C81.3594 6.76416 81.6557 7.05737 82.018 7.05737Z" fill="white"/>
<path id="Vector_11" d="M67.9448 15.6985C68.3088 15.6985 68.6034 15.4036 68.6034 15.043V6.43041C68.6034 6.06811 68.3071 5.7749 67.9448 5.7749C67.5824 5.7749 67.2861 6.0698 67.2861 6.43041V15.043C67.2861 15.4036 67.5824 15.6985 67.9448 15.6985Z" fill="white"/>
<path id="Vector_12" d="M96.0912 24.2486C96.4671 24.2486 96.7498 23.8138 96.7498 23.2359V13.6527C96.7498 13.0764 96.4671 12.6416 96.0912 12.6416C95.7154 12.6416 95.4326 13.0764 95.4326 13.6527V23.2359C95.4326 23.8122 95.7154 24.2486 96.0912 24.2486Z" fill="white"/>
<path id="Vector_13" d="M105.475 21.3804C105.111 21.3804 104.816 21.6753 104.816 22.0359V26.5199C104.816 26.8822 105.113 27.1754 105.475 27.1754C105.837 27.1754 106.134 26.8806 106.134 26.5199V22.0359C106.134 21.6736 105.837 21.3804 105.475 21.3804Z" fill="white"/>
<path id="Vector_14" d="M72.6371 6.27344C72.2731 6.27344 71.9785 6.56833 71.9785 6.92894V19.9413C71.9785 20.3036 72.2748 20.5968 72.6371 20.5968C72.9995 20.5968 73.2958 20.3019 73.2958 19.9413V6.92894C73.2958 6.56665 72.9995 6.27344 72.6371 6.27344Z" fill="white"/>
<path id="Vector_15" d="M77.329 13.8145C77.9402 13.8145 78.4363 14.3082 78.4363 14.9165V16.4634C78.4363 17.0718 77.9402 17.5655 77.329 17.5655C76.7178 17.5655 76.2217 17.0718 76.2217 16.4634V14.9165C76.2217 14.3082 76.7178 13.8145 77.329 13.8145Z" fill="white"/>
<path id="Vector_16" d="M82.0184 7.9502C81.4072 7.9502 80.9111 8.44393 80.9111 9.05225V13.8632C80.9111 14.4716 81.4072 14.9653 82.0184 14.9653C82.6296 14.9653 83.1257 14.4716 83.1257 13.8632V9.05225C83.1257 8.44393 82.6296 7.9502 82.0184 7.9502Z" fill="white"/>
<path id="Vector_17" d="M86.7104 27.4048C86.3464 27.4048 86.0518 27.6997 86.0518 28.0603V32.1079C86.0518 32.4702 86.3481 32.7634 86.7104 32.7634C87.0727 32.7634 87.369 32.4685 87.369 32.1079V28.0603C87.369 27.698 87.0727 27.4048 86.7104 27.4048Z" fill="white"/>
<path id="Vector_18" d="M86.7098 19.4966C86.0969 19.4966 85.6025 19.9903 85.6025 20.5986V25.4096C85.6025 26.0179 86.0986 26.5117 86.7098 26.5117C87.3211 26.5117 87.8171 26.0179 87.8171 25.4096V20.5986C87.8171 19.9903 87.3211 19.4966 86.7098 19.4966Z" fill="white"/>
<path id="Vector_19" d="M96.0917 25.2363C95.4804 25.2363 94.9844 25.7301 94.9844 26.3384V31.1494C94.9844 31.7577 95.4804 32.2514 96.0917 32.2514C96.7029 32.2514 97.199 31.7577 97.199 31.1494V26.3384C97.199 25.7301 96.7029 25.2363 96.0917 25.2363Z" fill="white"/>
<path id="Vector_20" d="M105.474 15.2163C104.863 15.2163 104.367 15.71 104.367 16.3184V19.328C104.367 19.9363 104.863 20.43 105.474 20.43C106.086 20.43 106.582 19.9363 106.582 19.328V16.3184C106.582 15.71 106.086 15.2163 105.474 15.2163Z" fill="white"/>
<path id="Vector_21" d="M72.6366 0.208984C72.0254 0.208984 71.5293 0.70272 71.5293 1.31104V4.32233C71.5293 4.93065 72.0254 5.42438 72.6366 5.42438C73.2478 5.42438 73.7439 4.93065 73.7439 4.32233V1.31104C73.7439 0.70272 73.2478 0.208984 72.6366 0.208984Z" fill="white"/>
<path id="Vector_22" d="M3.64395 31.1391C2.93283 31.1391 2.35377 30.8476 1.78488 30.3859L0.975586 31.3514C1.72395 32.0238 2.66701 32.3439 3.61854 32.3439C4.96119 32.3439 5.90426 31.653 5.90426 30.4229V30.4044C5.90426 29.3242 5.19314 28.8811 3.92838 28.544C2.85155 28.2609 2.58405 28.1447 2.58405 27.7301V27.7116C2.58405 27.4015 2.85156 27.1707 3.38489 27.1707C3.91823 27.1707 4.44308 27.4015 5.00351 27.7824L5.71463 26.7545C5.07463 26.2489 4.3178 25.9658 3.40182 25.9658C2.12013 25.9658 1.22108 26.709 1.22108 27.8346V27.8515C1.22108 29.0732 2.02194 29.4371 3.285 29.7472C4.32627 30.0033 4.53959 30.1904 4.53959 30.5358V30.5544C4.53959 30.9167 4.21114 31.1391 3.64056 31.1391H3.64395Z" fill="white"/>
<path id="Vector_23" d="M8.3069 29.6057C8.3069 28.9688 8.61845 28.6402 9.12469 28.6402C9.63094 28.6402 9.91706 28.9688 9.91706 29.6057V32.253H11.2699V29.6057C11.2699 28.9688 11.5814 28.6402 12.0877 28.6402C12.5939 28.6402 12.88 28.9688 12.88 29.6057V32.253H14.2328V29.1625C14.2328 28.02 13.6284 27.4185 12.6227 27.4185C11.9725 27.4185 11.4747 27.6746 11.0565 28.1717C10.8076 27.6847 10.3454 27.4185 9.7122 27.4185C9.02649 27.4185 8.61844 27.7824 8.3069 28.1801V27.5078H6.9541V32.2547H8.3069V29.6074V29.6057Z" fill="white"/>
<path id="Vector_24" d="M16.7586 32.3424C17.4257 32.3424 17.871 32.1031 18.1995 31.7408V32.2547H19.5082V29.5013C19.5082 28.8643 19.3474 28.3419 18.9918 27.9864C18.6447 27.6409 18.1283 27.4556 17.3817 27.4556C16.5724 27.4556 16.056 27.6157 15.5311 27.8364L15.8697 28.8643C16.3049 28.6958 16.6621 28.6082 17.187 28.6082C17.8625 28.6082 18.2096 28.9098 18.2096 29.476V29.5552C17.8625 29.4406 17.534 29.3597 17.0447 29.3597C15.9154 29.3597 15.123 29.8467 15.123 30.8746V30.8932C15.123 31.8402 15.8613 32.3457 16.7603 32.3457L16.7586 32.3424ZM16.4301 30.819C16.4301 30.3944 16.7857 30.1635 17.3647 30.1635C17.6932 30.1635 17.9878 30.2343 18.2282 30.3405V30.5798C18.2282 31.0752 17.81 31.4122 17.17 31.4122C16.7332 31.4122 16.4318 31.1999 16.4318 30.8359V30.8174L16.4301 30.819Z" fill="white"/>
<path id="Vector_25" d="M23.5478 28.8273V27.4185C22.7385 27.3831 22.3016 27.8179 22.0257 28.4633V27.5061H20.6729V32.2531H22.0257V30.4989C22.0257 29.3564 22.5776 28.8256 23.4766 28.8256H23.5478V28.8273Z" fill="white"/>
<path id="Vector_26" d="M24.6168 30.908C24.6168 32.0067 25.1856 32.3336 26.0051 32.3336C26.4589 32.3336 26.7873 32.2275 27.0735 32.059V30.9788C26.8686 31.0934 26.6468 31.1473 26.4064 31.1473C26.1135 31.1473 25.9696 30.9973 25.9696 30.6873V28.6601H27.0904V27.5092H25.9696V26.2959H24.6168V27.5092H24.0479V28.6601H24.6168V30.9097V30.908Z" fill="white"/>
<path id="Vector_27" d="M35.8271 28.1986C35.8271 26.923 34.9281 26.0552 33.4432 26.0552H30.8984V32.2547H32.2682V30.3943H33.3094C34.7063 30.3943 35.8271 29.6596 35.8271 28.2155V28.1969V28.1986ZM34.4388 28.2424C34.4388 28.7733 34.0375 29.181 33.3535 29.181H32.2682V27.2853H33.3264C34.0121 27.2853 34.4388 27.6122 34.4388 28.2239V28.2424Z" fill="white"/>
<path id="Vector_28" d="M38.051 30.5006C38.051 29.3581 38.603 28.8273 39.502 28.8273H39.5732V27.4185C38.7638 27.3831 38.327 27.8179 38.051 28.4633V27.5061H36.6982V32.2531H38.051V30.4989V30.5006Z" fill="white"/>
<path id="Vector_29" d="M42.5453 32.3609C43.4088 32.3609 44.0403 32.034 44.494 31.4745L43.7203 30.792C43.3377 31.1375 43.0177 31.279 42.5639 31.279C41.9595 31.279 41.5311 30.9605 41.399 30.3489H44.7175C44.726 30.2157 44.7362 30.1011 44.7362 29.995C44.7362 28.6486 44.0064 27.4185 42.4132 27.4185C41.0249 27.4185 40.0547 28.534 40.0547 29.8888V29.9074C40.0547 31.3599 41.1129 32.3609 42.5453 32.3609ZM42.4115 28.5003C42.9804 28.5003 43.3376 28.9081 43.4172 29.5097H41.3804C41.4871 28.898 41.8426 28.5003 42.4132 28.5003H42.4115Z" fill="white"/>
<path id="Vector_30" d="M47.6969 32.3422C48.408 32.3422 48.8533 32.0237 49.1835 31.5721V32.2546H50.5363V25.7905H49.1835V28.1278C48.8635 27.7469 48.4182 27.42 47.6969 27.42C46.5676 27.42 45.5264 28.2879 45.5264 29.8735V29.8921C45.5264 31.4778 46.5846 32.3456 47.6969 32.3456V32.3422ZM46.8792 29.8719C46.8792 29.0748 47.4125 28.5608 48.044 28.5608C48.6756 28.5608 49.2004 29.0832 49.2004 29.8719V29.8904C49.2004 30.679 48.6756 31.2014 48.044 31.2014C47.4125 31.2014 46.8792 30.679 46.8792 29.8904V29.8719Z" fill="white"/>
<path id="Vector_31" d="M53.1964 25.7891H51.7725V26.9838H53.1964V25.7891Z" fill="white"/>
<path id="Vector_32" d="M53.1614 27.5078H51.8086V32.2548H53.1614V27.5078Z" fill="white"/>
<path id="Vector_33" d="M56.684 32.3606C57.6355 32.3606 58.1706 31.9967 58.6328 31.4928L57.8404 30.6958C57.5119 31.0058 57.2004 31.2013 56.7466 31.2013C56.0084 31.2013 55.5361 30.625 55.5361 29.8903V29.8718C55.5361 29.164 56.0169 28.5793 56.6925 28.5793C57.1818 28.5793 57.4662 28.7832 57.7778 29.1017L58.6057 28.217C58.1519 27.7216 57.6 27.4199 56.7009 27.4199C55.2415 27.4199 54.2002 28.5355 54.2002 29.8903V29.9088C54.2002 31.2552 55.2499 32.3623 56.6823 32.3623L56.684 32.3606Z" fill="white"/>
<path id="Vector_34" d="M59.7369 30.908C59.7369 32.0067 60.3058 32.3336 61.1252 32.3336C61.579 32.3336 61.9074 32.2275 62.1936 32.059V30.9788C61.9887 31.0934 61.7669 31.1473 61.5265 31.1473C61.2336 31.1473 61.0897 30.9973 61.0897 30.6873V28.6601H62.2105V27.5092H61.0897V26.2959H59.7369V27.5092H59.168V28.6601H59.7369V30.9097V30.908Z" fill="white"/>
<path id="Vector_35" d="M65.4224 32.3609C66.909 32.3609 68.0112 31.2538 68.0112 29.8905V29.872C68.0112 28.5003 66.9073 27.4185 65.4394 27.4185C63.9714 27.4185 62.8506 28.5256 62.8506 29.8888V29.9074C62.8506 31.2807 63.9545 32.3609 65.4224 32.3609ZM64.1865 29.872C64.1865 29.1642 64.6487 28.5795 65.4224 28.5795C66.1962 28.5795 66.677 29.1912 66.677 29.8905V29.909C66.677 30.6168 66.2148 31.2015 65.4411 31.2015C64.6673 31.2015 64.1865 30.5898 64.1865 29.8905V29.872Z" fill="white"/>
<path id="Vector_36" d="M70.343 28.463V27.5059H68.9902V32.2528H70.343V30.4986C70.343 29.3561 70.895 28.8253 71.794 28.8253H71.8651V27.4166C71.0558 27.3812 70.619 27.8159 70.343 28.4613V28.463Z" fill="white"/>
<path id="Vector_37" d="M29.8547 40.6395C29.8547 41.2141 29.6413 41.5057 29.2231 41.5057H28.7541V41.4972H27.4657C27.4657 40.1609 26.8528 39.2864 25.6253 38.8533C25.2968 38.7387 24.7448 38.6848 23.9626 38.6848V39.7194C25.544 39.7194 26.2195 40.2671 26.2195 41.5057H22.9941V42.6903H29.4788C30.0037 42.6903 30.4117 42.5133 30.7046 42.1511C30.962 41.841 31.0957 41.4517 31.0957 40.9833V36.9946H29.8513V40.6395H29.8547Z" fill="white"/>
<path id="Vector_38" d="M52.0114 43.1338H50.9092V44.16H52.0114V43.1338Z" fill="white"/>
<path id="Vector_39" d="M68.0541 40.6396C68.0541 41.2142 67.8407 41.5058 67.4225 41.5058H65.9326C65.9326 40.2048 65.1504 39.4364 63.8535 39.4364C62.5565 39.4364 61.8352 40.2318 61.8352 41.5058H59.624C59.7222 41.2311 59.7747 40.9396 59.7747 40.6126V38.6849H58.5218V40.6581C58.5218 41.2243 58.3085 41.5074 57.8903 41.5074H55.8027C55.9009 41.2328 55.9534 40.9412 55.9534 40.6143V38.6866H54.7004V40.6598C54.7004 41.226 54.4871 41.5091 54.0689 41.5091H51.9813C52.0795 41.2344 52.132 40.9429 52.132 40.616V38.6883H50.8791V40.6615C50.8791 41.2277 50.6657 41.5108 50.2475 41.5108H44.2894V41.4046H44.0761C43.4903 41.4046 43.1601 41.2631 42.9299 40.8216C42.4676 39.9369 41.7396 39.4954 40.761 39.4954C40.3699 39.4954 40.1751 39.4954 40.1751 39.5038V40.68C40.2547 40.6632 40.3259 40.6531 40.4054 40.6531C40.8761 40.6531 41.3028 40.9884 41.3028 41.494C41.3028 42.414 40.3072 43.0426 39.2676 43.0426C37.8996 43.0426 37.1343 42.1848 37.1343 40.8924V39.8577H35.7832V41.0171C35.7832 42.8656 37.3121 44.2895 39.2406 44.2895C40.8219 44.2895 42.2001 43.4049 42.4846 42.1309C42.8571 42.5016 43.4175 42.687 44.1692 42.6954L44.2268 42.6971H62.1959C62.5684 43.201 63.1288 43.4571 63.8839 43.4571C64.6391 43.4571 65.1809 43.201 65.5466 42.6971H67.6765C68.2014 42.6971 68.6094 42.5202 68.9023 42.1579C69.1597 41.8478 69.2935 41.4586 69.2935 40.9901V37.0015H68.049V40.6463L68.0541 40.6396ZM63.889 42.4444C63.3641 42.4444 63.0628 42.0197 63.0628 41.4265C63.0628 40.8334 63.3641 40.4273 63.8179 40.4273H63.9059C64.4308 40.4273 64.6966 40.7812 64.6966 41.4805C64.6966 42.0736 64.3952 42.4444 63.8873 42.4444H63.889Z" fill="white"/>
<path id="Vector_40" d="M33.2483 36.9863H32.0039V42.6921H33.2483V36.9863Z" fill="white"/>
<path id="Vector_41" d="M71.4485 36.9863H70.2041V42.6921H71.4485V36.9863Z" fill="white"/>
<path id="Vector_42" d="M19.5868 38.6766H18.9028L20.022 36.9966H18.5472L16.7695 39.8174H19.0095C19.9509 39.8174 20.689 40.542 20.8143 41.5076H8.89476C8.36142 41.5076 8.04989 41.3745 7.83656 40.9684C7.40989 40.1545 6.74282 39.7484 5.84547 39.7484C5.48145 39.7484 5.30366 39.7484 5.30366 39.7568V40.8353C5.37477 40.8184 5.44588 40.8083 5.51699 40.8083C5.94366 40.8083 6.34323 41.1183 6.34323 41.5868C6.34323 42.4091 5.42726 43.0107 4.46726 43.0107C3.20589 43.0107 2.50323 42.2154 2.50323 41.029V40.082H1.25879V41.1436C1.25879 42.8591 2.66239 44.16 4.44017 44.16C5.88948 44.16 7.15086 43.3646 7.42684 42.1699C7.76377 42.5052 8.28017 42.6804 8.96927 42.6906L9.02683 42.6922H22.1654V42.2322C22.1654 40.1545 21.285 38.8536 19.5885 38.6766H19.5868Z" fill="white"/>
<path id="Vector_43" d="M55.8577 36.9966H54.7471V38.0144H55.8577V36.9966Z" fill="white"/>
<path id="Vector_44" d="M5.95964 44.9839H4.85742V46.0017H5.95964V44.9839Z" fill="white"/>
<path id="Vector_45" d="M59.6774 36.9966H58.5752V38.0144H59.6774V36.9966Z" fill="white"/>
<path id="Vector_46" d="M25.6273 36.9966H24.5166V38.0144H25.6273V36.9966Z" fill="white"/>
<path id="Vector_47" d="M4.28939 44.9839H3.17871V46.0017H4.28939V44.9839Z" fill="white"/>
<path id="Vector_48" d="M58.0065 36.9966H56.9043V38.0144H58.0065V36.9966Z" fill="white"/>
<path id="Vector_49" d="M35.8066 38.5621V39.2783H38.3124V38.5621H37.2289C37.0951 38.5099 37.024 38.3767 37.024 38.1644C37.024 37.8813 37.1307 37.7398 37.3525 37.7398C37.5031 37.7398 37.6098 37.8375 37.6725 38.0313L38.304 37.7398C38.1177 37.3067 37.7977 37.0859 37.3626 37.0859C36.7497 37.0859 36.2875 37.5628 36.2875 38.1998C36.2875 38.3144 36.3146 38.429 36.3586 38.5621H35.8083H35.8066Z" fill="white"/>
</g>
</svg>
