<svg width="91" height="36" viewBox="0 0 91 36" fill="none" xmlns="http://www.w3.org/2000/svg">
<g id="Group">
<path id="Vector" d="M39.2487 15.74C38.7763 15.74 38.3124 15.6962 37.8587 15.6085C37.4032 15.5209 36.9765 15.403 36.5753 15.2564C36.174 15.1098 35.8049 14.9362 35.468 14.7357C35.131 14.5368 34.8449 14.3245 34.6096 14.1021C34.5148 14.0077 34.5097 13.9083 34.5926 13.8021L35.9386 12.2687C36.0097 12.1743 36.0978 12.1692 36.2045 12.2501C36.6058 12.5686 37.073 12.8534 37.603 13.1045C38.1346 13.3572 38.7188 13.4836 39.3571 13.4836C39.9954 13.4836 40.4813 13.3522 40.8182 13.0876C41.1535 12.8231 41.3228 12.4793 41.3228 12.0563C41.3228 11.7042 41.1924 11.416 40.9333 11.1919C40.6726 10.9695 40.1833 10.8111 39.4637 10.7167L38.8271 10.6291C37.5996 10.4639 36.6582 10.0915 36.003 9.51015C35.3478 8.92879 35.021 8.10309 35.021 7.03473C35.021 6.48202 35.1209 5.98154 35.3224 5.52825C35.5222 5.07496 35.81 4.69075 36.1808 4.37395C36.5532 4.05715 37.002 3.81113 37.5268 3.63419C38.0517 3.45894 38.6391 3.36963 39.2893 3.36963C40.0918 3.36963 40.847 3.48253 41.5548 3.70497C42.2625 3.92908 42.8703 4.23409 43.3783 4.62166C43.4849 4.69244 43.4968 4.78006 43.4138 4.88622L42.3335 6.48876C42.2624 6.58312 42.1795 6.59998 42.0863 6.54268C41.6258 6.23768 41.1687 6.0085 40.7132 5.85516C40.2578 5.70181 39.7837 5.62598 39.2876 5.62598C38.756 5.62598 38.3548 5.749 38.0839 5.99502C37.813 6.24273 37.6758 6.55279 37.6758 6.93026C37.6758 7.27065 37.8146 7.55206 38.0923 7.77618C38.3683 7.99861 38.8559 8.1587 39.5534 8.25138L40.1901 8.339C41.4413 8.50414 42.3861 8.87655 43.0227 9.45791C43.661 10.0393 43.9793 10.8768 43.9793 11.9687C43.9793 12.5096 43.8793 13.0118 43.6779 13.4752C43.4781 13.9386 43.1801 14.338 42.7839 14.6733C42.3877 15.0086 41.8967 15.2698 41.3058 15.4569C40.7149 15.6439 40.0309 15.7383 39.2521 15.7383" fill="white"/>
<path id="Vector_2" d="M45.7304 3.73873C45.7304 3.62077 45.7897 3.56348 45.9082 3.56348H48.0145C48.1567 3.56348 48.2498 3.62246 48.2972 3.73873L51.3431 10.5769H51.4143L54.406 3.73873C54.4534 3.62077 54.5465 3.56348 54.6887 3.56348H56.7594C56.8779 3.56348 56.9372 3.62246 56.9372 3.73873V15.3693C56.9372 15.4873 56.8779 15.5463 56.7594 15.5463H54.7582C54.6397 15.5463 54.5804 15.4873 54.5804 15.3693V8.62048H54.5093L52.2777 13.6775C52.2066 13.8308 52.0949 13.9067 51.9408 13.9067H50.7201C50.566 13.9067 50.4542 13.8308 50.3831 13.6775L48.1516 8.62048H48.0804V15.3693C48.0804 15.4873 48.0212 15.5463 47.9027 15.5463H45.9015C45.7829 15.5463 45.7236 15.4873 45.7236 15.3693V3.73873H45.7304Z" fill="white"/>
<path id="Vector_3" d="M62.4805 3.73873C62.516 3.62246 62.5922 3.56348 62.7107 3.56348H64.9423C65.0591 3.56348 65.137 3.62246 65.1725 3.73873L69.2445 15.371C69.28 15.489 69.2394 15.5463 69.1209 15.5463H66.8199C66.7014 15.5463 66.6252 15.4873 66.5897 15.371L65.8989 13.2731H61.6847L61.0108 15.371C60.9753 15.489 60.8991 15.5463 60.7806 15.5463H58.461C58.3425 15.5463 58.3019 15.4873 58.3357 15.371L62.4787 3.73873H62.4805ZM65.1895 11.0706L63.8265 6.87639H63.7723L62.4094 11.0706H65.1895Z" fill="white"/>
<path id="Vector_4" d="M77.2999 15.5446C77.1695 15.5446 77.0815 15.4856 77.0341 15.3693L74.9634 10.9813H73.3516C73.2805 10.9813 73.2466 11.0167 73.2466 11.0875V15.3693C73.2466 15.4873 73.1874 15.5446 73.0688 15.5446H70.8203C70.7018 15.5446 70.6426 15.4856 70.6426 15.3693V3.73873C70.6426 3.62246 70.7018 3.56348 70.8203 3.56348H75.6187C76.2316 3.56348 76.7903 3.65447 77.2915 3.83646C77.7926 4.02014 78.2244 4.27459 78.585 4.60319C78.9457 4.93178 79.2216 5.3261 79.4163 5.78276C79.611 6.24111 79.7092 6.7399 79.7092 7.28082C79.7092 8.05597 79.5196 8.73169 79.1421 9.308C78.7645 9.88431 78.2396 10.3191 77.5658 10.6123L79.9378 15.3356C79.9615 15.3946 79.9615 15.4435 79.9378 15.4856C79.9141 15.5277 79.8735 15.5479 79.8142 15.5479H77.2999V15.5446ZM75.4764 8.77719C75.9725 8.77719 76.367 8.64238 76.6633 8.37277C76.9579 8.10315 77.1052 7.73748 77.1052 7.27913C77.1052 6.82079 76.9579 6.47534 76.6633 6.20404C76.3687 5.93442 75.9725 5.79961 75.4764 5.79961H73.3516C73.2805 5.79961 73.2466 5.835 73.2466 5.90577V8.67271C73.2466 8.74349 73.2822 8.77888 73.3516 8.77888H75.4764V8.77719Z" fill="white"/>
<path id="Vector_5" d="M84.3133 15.5465C84.1948 15.5465 84.1356 15.4875 84.1356 15.3712V5.97847C84.1356 5.9077 84.1 5.87231 84.0306 5.87231H80.9847C80.8662 5.87231 80.8086 5.81502 80.8086 5.69706V3.75582C80.8086 3.63955 80.8679 3.58057 80.9847 3.58057H89.8922C90.009 3.58057 90.0683 3.63955 90.0683 3.75582V5.69706C90.0683 5.81333 90.009 5.87231 89.8922 5.87231H86.8463C86.7752 5.87231 86.7396 5.9077 86.7396 5.97847V15.3712C86.7396 15.4892 86.6803 15.5465 86.5635 15.5465H84.315H84.3133Z" fill="white"/>
<path id="Vector_6" d="M35.1943 20.1464C35.1943 20.0285 35.2536 19.9712 35.3722 19.9712H37.6206C37.7374 19.9712 37.7967 20.0302 37.7967 20.1481V24.6592C37.7967 24.7299 37.8322 24.7653 37.9033 24.7653H41.8348C41.9059 24.7653 41.9414 24.7299 41.9414 24.6592V20.1481C41.9414 20.0302 42.0007 19.9712 42.1192 19.9712H44.3677C44.4862 19.9712 44.5454 20.0302 44.5454 20.1464V31.777C44.5454 31.895 44.4862 31.954 44.3677 31.954H42.1192C42.0007 31.954 41.9414 31.895 41.9414 31.777V27.1598C41.9414 27.0891 41.9059 27.0537 41.8348 27.0537H37.9033C37.8322 27.0537 37.7967 27.0891 37.7967 27.1598V31.777C37.7967 31.895 37.7374 31.954 37.6206 31.954H35.3722C35.2536 31.954 35.1943 31.895 35.1943 31.777V20.1464Z" fill="white"/>
<path id="Vector_7" d="M46.8457 20.1464C46.8457 20.0285 46.9049 19.9712 47.0234 19.9712H49.2719C49.3887 19.9712 49.448 20.0302 49.448 20.1464V31.777C49.448 31.895 49.3887 31.954 49.2719 31.954H47.0234C46.9049 31.954 46.8457 31.895 46.8457 31.777V20.1464Z" fill="white"/>
<path id="Vector_8" d="M58.4083 31.954C58.2779 31.954 58.1899 31.895 58.1425 31.7787L56.0718 27.3907H54.46C54.3889 27.3907 54.355 27.4261 54.355 27.4969V31.7787C54.355 31.8967 54.2958 31.954 54.1772 31.954H51.9288C51.8103 31.954 51.751 31.895 51.751 31.7787V20.1464C51.751 20.0302 51.8103 19.9712 51.9288 19.9712H56.7271C57.34 19.9712 57.8987 20.0622 58.3999 20.2442C58.901 20.4262 59.3328 20.6823 59.6934 21.0109C60.0541 21.3395 60.33 21.7338 60.5247 22.1905C60.7194 22.6488 60.8177 23.1476 60.8177 23.6885C60.8177 24.4637 60.628 25.1394 60.2505 25.7157C59.8729 26.292 59.348 26.7268 58.6742 27.02L61.0462 31.7433C61.0699 31.8023 61.0699 31.8512 61.0462 31.8933C61.0225 31.9354 60.9819 31.9557 60.9226 31.9557H58.4083V31.954ZM56.5849 25.1866C57.081 25.1866 57.4754 25.0518 57.7717 24.7822C58.0663 24.5125 58.2136 24.1469 58.2136 23.6885C58.2136 23.2302 58.0663 22.8847 57.7717 22.6134C57.4771 22.3438 57.081 22.209 56.5849 22.209H54.46C54.3889 22.209 54.355 22.2444 54.355 22.3152V25.0821C54.355 25.1529 54.3906 25.1883 54.46 25.1883H56.5849V25.1866Z" fill="white"/>
<path id="Vector_9" d="M62.7988 20.1464C62.7988 20.0285 62.8581 19.9712 62.9767 19.9712H70.6972C70.814 19.9712 70.8733 20.0302 70.8733 20.1464V22.0321C70.8733 22.15 70.814 22.2073 70.6972 22.2073H65.5096C65.4384 22.2073 65.4028 22.2427 65.4028 22.3135V24.6929C65.4028 24.7636 65.4384 24.799 65.5096 24.799H69.8304C69.9489 24.799 70.0081 24.858 70.0081 24.9743V26.8414C70.0081 26.9593 69.9489 27.0183 69.8304 27.0183H65.5096C65.4384 27.0183 65.4028 27.0537 65.4028 27.1245V29.6083C65.4028 29.6791 65.4384 29.7145 65.5096 29.7145H70.6972C70.814 29.7145 70.8733 29.7734 70.8733 29.8914V31.777C70.8733 31.895 70.814 31.954 70.6972 31.954H62.9767C62.8581 31.954 62.7988 31.895 62.7988 31.777V20.1464Z" fill="white"/>
<path id="Vector_10" d="M28.4302 18.2511C28.4302 21.4528 25.8227 24.0479 22.6058 24.0479H16.7832V18.2511C16.7832 15.0511 19.3905 12.4561 22.6058 12.4561C24.2142 12.4561 25.6704 13.1048 26.7235 14.153C27.7766 15.2011 28.4302 16.6486 28.4302 18.2494" fill="white"/>
<path id="Vector_11" d="M22.6056 24.7217H17.4603V29.841C17.4603 32.3771 15.9855 34.5762 13.8438 35.6361H17.2825C23.4387 35.6361 28.43 30.6684 28.43 24.5414V21.1206C27.3651 23.2523 25.1555 24.72 22.6056 24.72V24.7217Z" fill="white"/>
<path id="Vector_12" d="M16.7827 24.0479V29.8429C16.7827 33.0429 14.1753 35.638 10.9583 35.638C9.34986 35.638 7.89554 34.9909 6.84242 33.9394C5.7893 32.8913 5.13574 31.4421 5.13574 29.8429C5.13574 26.6429 7.74309 24.0479 10.9583 24.0479H16.7827Z" fill="white"/>
<path id="Vector_13" d="M0.799805 17.7489C0.799805 14.5472 3.40728 11.9521 6.62421 11.9521H12.4468V17.7489C12.4468 20.9489 9.83944 23.544 6.62421 23.544C5.01574 23.544 3.5596 22.8952 2.50648 21.8471C1.45336 20.799 0.799805 19.3514 0.799805 17.7506" fill="white"/>
<path id="Vector_14" d="M6.62638 11.2779H11.7718V6.15689C11.7718 3.62081 13.2465 1.42175 15.3883 0.361816H11.9513C5.79509 0.361816 0.803711 5.32951 0.803711 11.4565V14.8773C1.86868 12.7457 4.07827 11.2779 6.62811 11.2779H6.62638Z" fill="white"/>
<path id="Vector_15" d="M12.4463 11.952V6.15689C12.4463 2.95688 15.0538 0.361816 18.2707 0.361816C19.8792 0.361816 21.3335 1.0089 22.3866 2.0604C23.4397 3.10854 24.0933 4.55773 24.0933 6.15689C24.0933 9.35691 21.4859 11.952 18.2707 11.952H12.4463Z" fill="white"/>
</g>
</svg>
