<svg width="133" height="32" viewBox="0 0 133 32" fill="none" xmlns="http://www.w3.org/2000/svg">
<g id="Group">
<g id="Group_2">
<path id="Vector" d="M73.5815 21.0859H72.249V22.6733H73.5815V21.0859Z" fill="white"/>
<path id="Vector_2" d="M74.7446 15.9495C74.7446 16.8089 74.6515 17.4071 74.4636 17.7424C74.2011 18.2648 73.6745 18.5277 72.8686 18.5277H71.8561V18.5092H49.5815C48.6621 18.5092 48.5114 18.5092 48.381 18.4906C47.8748 18.4165 47.5175 18.2294 47.311 17.9109C47.0671 17.5369 46.9351 16.9218 46.9351 16.0624V7.73291H45.584V16.8476C45.584 17.8368 45.8464 18.585 46.3916 19.1074C46.8606 19.5741 47.4244 19.8168 48.1 19.8168H73.3021C75.1408 19.8168 76.0602 18.7147 76.0602 16.5292V11.3373H74.7463V15.9512L74.7446 15.9495Z" fill="white"/>
<path id="Vector_3" d="M76.0395 21.0859H74.707V22.6733H76.0395V21.0859Z" fill="white"/>
<path id="Vector_4" d="M93.2485 21.0859H91.916V22.6733H93.2485V21.0859Z" fill="white"/>
<path id="Vector_5" d="M90.7905 21.0859H89.458V22.6733H90.7905V21.0859Z" fill="white"/>
<path id="Vector_6" d="M101.73 12.9789C100.511 12.9789 99.5336 13.3715 98.8208 14.1736C98.108 14.9774 97.7508 15.9851 97.7508 17.2186C97.7508 17.6854 97.8067 18.1151 97.9201 18.5077H92.8729C93.1167 18.0039 93.2301 17.3315 93.2301 16.5277V11.3359H91.9163V15.9497C91.9163 16.8091 91.8232 17.4074 91.6352 17.7612C91.3728 18.2651 90.8463 18.5263 90.0403 18.5263H89.2327V18.5077H86.2494C86.0429 13.7085 83.9603 11.3174 80.0001 11.3174V12.5509H80.5064C82.064 12.6436 83.2272 13.2788 83.9773 14.4938C84.5969 15.5032 84.8966 16.8479 84.8966 18.5094H77.9531V19.8171H98.4636C99.1764 20.9006 100.265 21.4415 101.709 21.4415C102.91 21.4415 103.868 21.0303 104.581 20.1895C105.256 19.4059 105.593 18.415 105.593 17.2018C105.593 15.9885 105.275 14.9606 104.618 14.1955C103.924 13.3917 102.949 12.9823 101.728 12.9823L101.73 12.9789ZM101.711 20.2636C100.903 20.2636 100.285 19.9653 99.8537 19.3486C99.4964 18.8262 99.3102 18.1353 99.3102 17.2945C99.3102 16.3794 99.4981 15.67 99.8537 15.1274C100.285 14.4736 100.924 14.1382 101.787 14.1382C102.576 14.1382 103.176 14.4365 103.589 15.0533C103.907 15.5571 104.076 16.2295 104.076 17.0703C104.076 19.1986 103.289 20.2636 101.713 20.2636H101.711Z" fill="white"/>
<path id="Vector_7" d="M118.019 14.7919C118.562 12.6434 119.858 11.58 121.903 11.58V10.4409C118.581 10.4409 116.631 12.308 116.387 16.118H121.322C121.322 19.4984 119.465 21.6469 116.482 21.6469C113.723 21.6469 111.922 19.8168 111.697 16.7533C111.678 16.5663 111.678 15.8939 111.678 14.7363H110.346V16.5292C110.346 20.1336 112.992 22.9158 116.426 22.9158H116.537C119.934 22.9158 122.636 20.1522 122.636 16.6033V16.5292L122.617 14.7919H118.021H118.019Z" fill="white"/>
<path id="Vector_8" d="M118.374 24.2607H117.042V25.8481H118.374V24.2607Z" fill="white"/>
<path id="Vector_9" d="M115.917 24.2607H114.585V25.8481H115.917V24.2607Z" fill="white"/>
<path id="Vector_10" d="M126.181 4.46223C126.576 4.46223 126.801 4.68635 126.876 5.11605L127.644 5.04191C127.475 4.23811 126.987 3.84717 126.181 3.84717C125.13 3.84717 124.642 4.53806 124.642 5.49015C124.642 5.71426 124.68 5.93838 124.774 6.14397H124.024V6.89047H127.609V6.14397H125.601C125.469 5.95692 125.413 5.7328 125.413 5.47161C125.413 4.79925 125.675 4.46223 126.183 4.46223H126.181Z" fill="white"/>
<path id="Vector_11" d="M126.462 7.73145H125.148V19.8153H126.462V7.73145Z" fill="white"/>
<path id="Vector_12" d="M130.704 11.3359V18.4707C130.704 20.6748 129.822 21.6269 128.076 21.6269V22.8789C130.834 22.7289 132.018 21.273 132.018 18.228V11.3359H130.704Z" fill="white"/>
</g>
<g id="Group_3">
<path id="Vector_13" d="M24.772 29.6161H20.3242V23.8985H24.772C27.0933 23.8985 27.9162 22.9211 28.375 22.0702C28.9507 21.0018 29.0032 19.8273 29.0082 19.6891V19.6638V19.6807V13.3599H34.753V19.674C34.7547 20.1744 34.6768 24.0889 31.851 26.9216C30.6251 28.15 28.4021 29.6161 24.772 29.6161Z" fill="white"/>
<path id="Vector_14" d="M25.9098 0.0776367H20.165V20.0579H25.9098V0.0776367Z" fill="white"/>
<g id="Group_4">
<path id="Vector_15" d="M0.983398 0.305126V0.0776367H2.6308V0.305126H1.93322V2.11324H1.68264V0.305126H0.985093H0.983398Z" fill="white"/>
<path id="Vector_16" d="M3.99874 1.47268H3.94629L3.20468 0.438029V2.11302H2.9541V0.0791016H3.25718L3.97506 1.12555L4.68786 0.0791016H4.99093V2.11302H4.74035V0.44477L3.99874 1.47437V1.47268Z" fill="white"/>
</g>
<g id="Group_5">
<path id="Vector_17" d="M7.7883 19.1883H0.985352V13.4708H7.7883C10.1096 13.4708 10.9324 12.4934 11.3913 11.6424C11.9669 10.5741 12.0194 9.39957 12.0245 9.26139V9.23611V9.25296V5.06885H17.7692V9.24959C17.7709 9.76018 17.688 13.6663 14.8672 16.4955C13.6414 17.724 11.4183 19.19 7.7883 19.19V19.1883Z" fill="white"/>
<g id="Group_6">
<path id="Vector_18" d="M12.7879 29.4218C14.6431 29.4218 16.147 27.925 16.147 26.0786C16.147 24.2322 14.6431 22.7354 12.7879 22.7354C10.9327 22.7354 9.42871 24.2322 9.42871 26.0786C9.42871 27.925 10.9327 29.4218 12.7879 29.4218Z" fill="white"/>
<path id="Vector_19" d="M4.34448 29.4218C6.19968 29.4218 7.70364 27.925 7.70364 26.0786C7.70364 24.2322 6.19968 22.7354 4.34448 22.7354C2.48927 22.7354 0.985352 24.2322 0.985352 26.0786C0.985352 27.925 2.48927 29.4218 4.34448 29.4218Z" fill="white"/>
</g>
</g>
</g>
<g id="Group_7">
<g id="Group_8">
<path id="Vector_20" d="M79.5483 31.5553L79.7362 31.0262C79.7464 30.9975 79.7413 30.9672 79.7243 30.9436C79.6888 30.8964 79.66 30.8442 79.6346 30.7869C79.5618 30.6167 79.5263 30.3808 79.5263 30.0808C79.5263 29.7809 79.5618 29.5669 79.6312 29.3983C79.7007 29.2298 79.8158 29.1068 79.9749 29.031C80.0951 28.9737 80.2458 28.9383 80.4304 28.9248C80.4659 28.9215 80.4964 28.8979 80.5083 28.8658L80.6589 28.4429C80.6793 28.3839 80.6369 28.3232 80.5743 28.3232C80.5641 28.3232 80.554 28.3232 80.5421 28.3232C80.1205 28.3232 79.7887 28.3805 79.5466 28.4934C79.3045 28.6063 79.1318 28.7917 79.0251 29.0478C78.9184 29.304 78.8643 29.6511 78.8643 30.0909C78.8643 30.5307 78.9201 30.8897 79.0319 31.1441C79.1182 31.3396 79.2435 31.4929 79.4094 31.6025C79.4585 31.6362 79.5263 31.6143 79.5466 31.5586" fill="white"/>
<path id="Vector_21" d="M76.787 26.9209H77.2458C77.2966 26.9209 77.3356 26.958 77.3356 27.0035V27.477C77.3356 27.5225 77.2949 27.5596 77.2458 27.5596H76.787C76.7362 27.5596 76.6973 27.5225 76.6973 27.477V27.0035C76.6973 26.958 76.7379 26.9209 76.787 26.9209Z" fill="white"/>
<path id="Vector_22" d="M80.2696 26.9209H80.7385C80.7893 26.9209 80.8181 26.9546 80.8046 26.9967L80.6488 27.4332C80.6336 27.4753 80.5811 27.509 80.5286 27.509H80.0596C80.0088 27.509 79.98 27.4753 79.9936 27.4332L80.1493 26.9967C80.1646 26.9546 80.2171 26.9209 80.2696 26.9209Z" fill="white"/>
<path id="Vector_23" d="M81.2949 26.9209H81.7639C81.8147 26.9209 81.8435 26.9546 81.83 26.9967L81.6742 27.4332C81.6589 27.4753 81.6065 27.509 81.554 27.509H81.085C81.0342 27.509 81.0054 27.4753 81.019 27.4332L81.1747 26.9967C81.19 26.9546 81.2424 26.9209 81.2949 26.9209Z" fill="white"/>
<path id="Vector_24" d="M76.7831 28.3198H77.2487C77.2995 28.3198 77.3384 28.3603 77.3384 28.4091V31.7625C77.3384 31.813 77.2978 31.8518 77.2487 31.8518H76.7831C76.7323 31.8518 76.6934 31.8114 76.6934 31.7625V28.4091C76.6934 28.3586 76.734 28.3198 76.7831 28.3198Z" fill="white"/>
<path id="Vector_25" d="M77.8551 26.9209H78.3207C78.3715 26.9209 78.4121 26.9613 78.4121 27.0119V31.7639C78.4121 31.8144 78.3715 31.8549 78.3207 31.8549H77.8551C77.8043 31.8549 77.7637 31.8144 77.7637 31.7639V27.0119C77.7637 26.9613 77.8043 26.9209 77.8551 26.9209Z" fill="white"/>
<path id="Vector_26" d="M73.5053 31.791L73.3411 31.7641C73.2937 31.7556 73.2598 31.7118 73.2666 31.663L73.314 31.3057C73.3208 31.2568 73.3665 31.2215 73.4156 31.2282C73.998 31.304 74.4467 31.3411 74.76 31.3411C75.3864 31.3411 75.6996 31.0563 75.6996 30.4884C75.6996 30.3317 75.6675 30.2053 75.6014 30.111C75.5371 30.0166 75.4338 29.9408 75.2916 29.8818C75.1494 29.8245 74.9513 29.7672 74.6973 29.7116C74.3214 29.624 74.0285 29.5262 73.8203 29.4167C73.612 29.3089 73.458 29.169 73.3614 28.9971C73.2632 28.8269 73.2158 28.6028 73.2158 28.3248C73.2158 27.8866 73.3479 27.5564 73.612 27.3339C73.8762 27.1115 74.2656 27.002 74.782 27.002C74.9716 27.002 75.1782 27.0137 75.3983 27.0373C75.6015 27.0592 75.8639 27.0963 76.1873 27.1486C76.2347 27.157 76.2685 27.1991 76.2634 27.2463L76.2262 27.612C76.2211 27.6625 76.1754 27.6979 76.1263 27.6928C75.5371 27.6254 75.1087 27.5917 74.8395 27.5917C74.2029 27.5917 73.8863 27.8226 73.8863 28.2843C73.8863 28.4545 73.9219 28.5893 73.9947 28.6854C74.0658 28.7831 74.1809 28.8623 74.3401 28.9247C74.4975 28.987 74.7363 29.0544 75.0563 29.1286C75.3898 29.2111 75.6505 29.3038 75.8351 29.4049C76.0213 29.506 76.1568 29.6375 76.2414 29.7992C76.3278 29.961 76.3701 30.1733 76.3701 30.4362C76.3701 30.9266 76.2364 31.2956 75.9705 31.545C75.703 31.7944 75.3153 31.9191 74.804 31.9191C74.484 31.9191 74.0522 31.8753 73.5087 31.7877" fill="white"/>
<path id="Vector_27" d="M88.6558 28.8573C88.412 28.5001 87.9989 28.3198 87.4131 28.3198C87.1168 28.3198 86.8543 28.3703 86.6258 28.4714C86.3989 28.5725 86.2008 28.704 86.0315 28.8657C85.8943 28.9972 85.7453 29.1589 85.5811 29.3527C85.5405 29.3999 85.4626 29.3729 85.4626 29.3106V28.4546C85.4626 28.4175 85.4321 28.3888 85.3965 28.3888H84.8751C84.8378 28.3888 84.809 28.4192 84.809 28.4546V31.1962C84.809 31.2333 84.7786 31.262 84.743 31.262H83.6086C83.5714 31.262 83.5426 31.2316 83.5426 31.1962V26.9852C83.5426 26.9481 83.5121 26.9194 83.4766 26.9194H82.9483C82.9111 26.9194 82.8823 26.9498 82.8823 26.9852V31.1962C82.8823 31.2333 82.8518 31.262 82.8162 31.262H82.2253C82.1881 31.262 82.1593 31.2316 82.1593 31.1962V28.4613C82.1593 28.4276 82.1339 28.399 82.1 28.3956C81.9358 28.3787 81.6971 28.3636 81.3805 28.3467C81.3517 28.3467 81.3246 28.3636 81.3145 28.3905L81.1519 28.8472C81.1367 28.8893 81.1654 28.9331 81.2112 28.9348C81.2857 28.9399 81.3636 28.9449 81.4448 28.95C81.4804 28.9517 81.5058 28.982 81.5058 29.0157V31.1945C81.5058 31.2316 81.4753 31.2603 81.4397 31.2603H80.6508C80.5407 31.2603 80.4408 31.2552 80.3494 31.2434C80.3189 31.24 80.2901 31.2586 80.2799 31.2872L80.1174 31.7422C80.1022 31.7826 80.131 31.8265 80.1733 31.8298C80.2969 31.8416 80.4306 31.8484 80.5745 31.8484H88.9572C88.9944 31.8484 89.0232 31.818 89.0232 31.7826V30.1093C89.0232 29.6291 88.9013 29.2095 88.6575 28.8522M88.302 31.2603H85.532C85.4948 31.2603 85.466 31.2299 85.466 31.1945V30.3453C85.466 30.3335 85.4694 30.32 85.4762 30.3099C86.0671 29.3746 86.6782 28.9062 87.3098 28.9062C87.6535 28.9062 87.9159 29.0326 88.0971 29.2836C88.2783 29.5347 88.368 29.8481 88.368 30.2222V31.1945C88.368 31.2316 88.3375 31.2603 88.302 31.2603Z" fill="white"/>
</g>
<g id="Group_9">
<path id="Vector_28" d="M46.8115 29.6224V30.6756H46.4932V27.5127H47.9137C49.3342 27.5127 49.3342 29.6191 47.9137 29.6224H46.8098H46.8115ZM46.8115 29.3242H47.9154C48.9093 29.3242 48.9093 27.811 47.9154 27.811H46.8115V29.3242Z" fill="white"/>
<path id="Vector_29" d="M51.5932 29.5634C51.5932 30.2543 51.1021 30.7109 50.4401 30.7109C49.7781 30.7109 49.2871 30.2543 49.2871 29.5634C49.2871 28.8725 49.768 28.4023 50.4401 28.4023C51.1123 28.4023 51.5932 28.8725 51.5932 29.5634ZM49.5902 29.5634C49.5902 30.0824 49.944 30.4262 50.4384 30.4262C50.9328 30.4262 51.2867 30.0824 51.2867 29.5634C51.2867 29.0444 50.9379 28.677 50.4384 28.677C49.939 28.677 49.5902 29.0477 49.5902 29.5634Z" fill="white"/>
<path id="Vector_30" d="M53.7317 28.4429L54.3666 30.3454L54.9982 28.4429H55.3334L54.5444 30.679H54.199L53.8671 29.7792L53.6132 28.9349L53.3541 29.7842L53.0223 30.679H52.6769L51.8828 28.4429H52.218L52.853 30.3454L53.4879 28.4429H53.7283H53.7317Z" fill="white"/>
<path id="Vector_31" d="M55.9473 29.6867C55.9879 30.1518 56.3519 30.4281 56.7955 30.4281C57.0681 30.4281 57.3949 30.3203 57.5541 30.1214L57.7589 30.3017C57.5371 30.5781 57.1511 30.7179 56.7972 30.7179C56.1302 30.7179 55.6357 30.2714 55.6357 29.5569C55.6357 28.8879 56.1166 28.4043 56.7837 28.4043C57.4508 28.4043 57.9875 28.807 57.9012 29.6883H55.949L55.9473 29.6867ZM57.6133 29.4288C57.6049 28.9402 57.2357 28.6739 56.7871 28.6739C56.3384 28.6739 56.0066 28.9452 55.9473 29.4288H57.6133Z" fill="white"/>
<path id="Vector_32" d="M58.7256 28.4428L58.7442 28.8085C58.8898 28.5102 59.1895 28.4058 59.457 28.4058C59.6619 28.4058 59.8024 28.4513 59.965 28.5642L59.8245 28.8169C59.711 28.7394 59.584 28.699 59.4384 28.699C59.0524 28.704 58.7442 28.9972 58.7442 29.4033V30.6739H58.4395V28.4412H58.7256V28.4428Z" fill="white"/>
<path id="Vector_33" d="M60.4238 29.6867C60.4644 30.1518 60.8285 30.4281 61.2721 30.4281C61.5447 30.4281 61.8714 30.3203 62.0306 30.1214L62.2355 30.3017C62.012 30.5781 61.6276 30.7179 61.2738 30.7179C60.6067 30.7179 60.1123 30.2714 60.1123 29.5569C60.1123 28.8879 60.5932 28.4043 61.2602 28.4043C61.9273 28.4043 62.464 28.807 62.3777 29.6883H60.4255L60.4238 29.6867ZM62.0899 29.4288C62.0814 28.9402 61.714 28.6739 61.2636 28.6739C60.8133 28.6739 60.4831 28.9452 60.4238 29.4288H62.0899Z" fill="white"/>
<path id="Vector_34" d="M65.0918 27.5127V30.6756H64.7972L64.7888 30.2291C64.6076 30.5493 64.2622 30.7178 63.9083 30.7178C63.2734 30.7178 62.7773 30.3015 62.7773 29.5618C62.7773 28.822 63.2717 28.4058 63.9083 28.4058C64.2571 28.4058 64.6211 28.5591 64.7888 28.8894V27.5161H65.0935L65.0918 27.5127ZM63.0804 29.5601C63.0804 30.1212 63.458 30.4279 63.9253 30.4279C64.3926 30.4279 64.7735 30.0757 64.7735 29.555C64.7735 29.0343 64.4011 28.6923 63.9253 28.6923C63.4495 28.6923 63.0804 28.9905 63.0804 29.5601Z" fill="white"/>
<path id="Vector_35" d="M68.4258 27.5127C68.9845 27.5127 69.4874 27.757 69.4874 28.3805C69.4874 28.6872 69.2961 28.9501 68.9879 29.0546C69.379 29.1675 69.5822 29.5011 69.5822 29.823C69.5822 30.4785 68.9964 30.6773 68.4241 30.6773H67.0713V27.5144H68.4241L68.4258 27.5127ZM67.3913 28.913H68.4495C68.8305 28.913 69.1708 28.7597 69.1708 28.3755C69.1708 27.9508 68.8169 27.8059 68.4258 27.8059H67.3913V28.913ZM67.3913 30.3774H68.4258C68.7881 30.3774 69.2656 30.2645 69.2656 29.8179C69.2605 29.3798 68.8305 29.2029 68.4478 29.2029H67.3896V30.3774H67.3913Z" fill="white"/>
<path id="Vector_36" d="M72.1165 28.4429L70.696 31.7423H70.3642L70.8365 30.6487L69.9375 28.4429H70.2778L70.7536 29.6764L71.0024 30.3184L71.2564 29.6764L71.7779 28.4429H72.1131H72.1165Z" fill="white"/>
</g>
</g>
</g>
</svg>
