<svg width="151" height="28" viewBox="0 0 151 28" fill="none" xmlns="http://www.w3.org/2000/svg">
<g id="Group">
<g id="Group_2">
<path id="Vector" d="M50.5164 17.4494C50.5164 20.7489 47.633 22.1542 44.5211 22.1542C41.6377 22.1542 39.4485 21.064 38.3242 18.7402L42.0712 16.617C42.4453 17.7073 43.2529 18.3105 44.5211 18.3105C45.5589 18.3105 46.077 17.9954 46.077 17.4208C46.077 15.8435 38.9863 16.6743 38.9863 11.7117C38.9863 8.5841 41.6377 7.00684 44.6362 7.00684C46.971 7.00684 49.0467 8.03981 50.2573 10.0771L46.568 12.0571C46.165 11.3106 45.5878 10.795 44.6362 10.795C43.8862 10.795 43.4257 11.0814 43.4257 11.5987C43.4257 13.2333 50.5164 12.143 50.5164 17.4511V17.4494Z" fill="white"/>
<path id="Vector_2" d="M57.7243 11.5398V16.617C57.7243 17.8505 58.7909 17.9651 60.694 17.8505V21.7515C55.0441 22.3245 53.4018 20.6326 53.4018 16.6153V11.5381H51.0957V7.40623H53.4018V4.68142L57.726 3.39062V7.40792H60.6957V11.5398H57.726H57.7243Z" fill="white"/>
<path id="Vector_3" d="M70.1748 18.3105C71.3566 18.3105 72.3657 17.8505 72.9414 17.2203L76.4004 19.2003C74.9884 21.1516 72.855 22.1559 70.1156 22.1559C65.1869 22.1559 62.1309 18.8565 62.1309 14.5814C62.1309 10.3063 65.2444 7.00684 69.7989 7.00684C74.008 7.00684 77.12 10.249 77.12 14.5814C77.12 15.183 77.0625 15.7576 76.9473 16.3036H66.7141C67.261 17.7949 68.5884 18.3122 70.1732 18.3122L70.1748 18.3105ZM72.8263 13.0884C72.3658 11.4235 71.0671 10.8219 69.7702 10.8219C68.1278 10.8219 67.0324 11.6257 66.6277 13.0884H72.8246H72.8263Z" fill="white"/>
<path id="Vector_4" d="M95.0792 14.5816C95.0792 18.8567 91.9656 22.1562 88.1899 22.1562C86.2581 22.1562 84.846 21.4956 83.8945 20.4053V27.4912H79.5703V7.40811H83.8945V8.7562C84.846 7.66593 86.2581 7.00537 88.1899 7.00537C91.9656 7.00537 95.0792 10.3048 95.0792 14.5799V14.5816ZM90.755 14.5816C90.755 12.4297 89.3142 11.0816 87.3248 11.0816C85.3354 11.0816 83.8945 12.4297 83.8945 14.5816C83.8945 16.7335 85.3354 18.0816 87.3248 18.0816C89.3142 18.0816 90.755 16.7335 90.755 14.5816Z" fill="white"/>
<path id="Vector_5" d="M107.763 17.7357V21.753H96.2324V18.8833L101.681 11.4233H96.5203V7.40771H107.475V10.2774L102.026 17.7374H107.763V17.7357Z" fill="white"/>
<path id="Vector_6" d="M116.814 18.3105C117.995 18.3105 119.004 17.8505 119.58 17.2203L123.039 19.2003C121.627 21.1516 119.494 22.1559 116.754 22.1559C111.826 22.1559 108.77 18.8565 108.77 14.5814C108.77 10.3063 111.883 7.00684 116.438 7.00684C120.647 7.00684 123.759 10.249 123.759 14.5814C123.759 15.183 123.701 15.7576 123.586 16.3036H113.353C113.9 17.7949 115.227 18.3122 116.812 18.3122L116.814 18.3105ZM119.465 13.0884C119.004 11.4235 117.706 10.8219 116.409 10.8219C114.767 10.8219 113.671 11.6257 113.266 13.0884H119.463H119.465Z" fill="white"/>
<path id="Vector_7" d="M134.857 7.12131V11.998C133.069 11.7115 130.533 12.4277 130.533 15.2688V21.7531H126.209V7.40778H130.533V9.96071C131.109 8.03801 133.041 7.11963 134.857 7.11963V7.12131Z" fill="white"/>
<path id="Vector_8" d="M135.723 14.5814C135.723 10.3063 139.124 7.00684 143.362 7.00684C147.6 7.00684 151.001 10.3063 151.001 14.5814C151.001 18.8565 147.6 22.1559 143.362 22.1559C139.124 22.1559 135.723 18.8565 135.723 14.5814ZM146.677 14.5814C146.677 12.5441 145.236 11.196 143.362 11.196C141.488 11.196 140.047 12.5441 140.047 14.5814C140.047 16.6187 141.488 17.9668 143.362 17.9668C145.236 17.9668 146.677 16.6187 146.677 14.5814Z" fill="white"/>
</g>
<path id="Vector_9" d="M30.511 15.4056H25.1066V9.37462L13.9845 7.10478V12.0303H8.58008V0.509277L30.511 4.98829V15.4056Z" fill="white"/>
<path id="Vector_10" d="M22.2484 24.5121L0.317383 20.033V9.61572H5.72181V15.6467L16.8423 17.9165V12.991H22.2484V24.5121Z" fill="white"/>
</g>
</svg>
