<svg width="119" height="36" viewBox="0 0 119 36" fill="none" xmlns="http://www.w3.org/2000/svg">
<g id="Group">
<path id="Vector" d="M99.5806 13.7265C100.188 13.4653 100.712 13.1114 101.128 12.6362C101.545 12.1627 101.854 11.605 102.07 10.941C102.273 10.2889 102.379 9.55419 102.379 8.74702C102.379 7.93986 102.283 7.19336 102.081 6.51763C101.88 5.8419 101.582 5.27234 101.176 4.78703C100.771 4.30003 100.258 3.93268 99.65 3.67317C99.0422 3.41198 98.3277 3.28223 97.5184 3.28223H93.4922V14.1175H97.4236C98.2465 14.1175 98.961 13.9877 99.5806 13.7265ZM95.0177 12.8132V4.57302H97.4609C98.0687 4.57302 98.5919 4.66907 99.0219 4.8696C99.4503 5.07181 99.7957 5.34311 100.07 5.71215C100.332 6.0795 100.534 6.51763 100.654 7.02821C100.773 7.5506 100.832 8.11848 100.832 8.73523C100.832 9.35198 100.761 9.90974 100.629 10.4186C100.497 10.9275 100.283 11.3556 100.009 11.7111C99.7347 12.0667 99.3775 12.3397 98.9372 12.5284C98.497 12.7188 97.9722 12.8132 97.3525 12.8132H95.0177Z" fill="white"/>
<path id="Vector_2" d="M104.606 13.1334C104.928 13.5008 105.332 13.7973 105.81 14.0114C106.286 14.2254 106.822 14.3315 107.43 14.3315C108.336 14.3315 109.122 14.0939 109.729 13.644C110.337 13.1941 110.718 12.6009 110.898 11.878H109.564C109.433 12.2925 109.194 12.6245 108.837 12.8621C108.48 13.0997 108.026 13.2177 107.479 13.2177C107.098 13.2177 106.765 13.1469 106.467 13.0155C106.169 12.8722 105.918 12.6835 105.717 12.4459C105.503 12.2083 105.348 11.9252 105.229 11.5932C105.122 11.2613 105.038 10.9057 105.014 10.5266H111.042C111.042 9.85083 110.971 9.24587 110.803 8.70158C110.637 8.1573 110.398 7.69389 110.077 7.30295C109.767 6.9238 109.386 6.62722 108.932 6.4149C108.492 6.20089 107.967 6.09473 107.383 6.09473C106.799 6.09473 106.299 6.20089 105.834 6.4149C105.37 6.62722 104.965 6.91369 104.642 7.29284C104.308 7.67199 104.059 8.11011 103.88 8.6089C103.702 9.11781 103.605 9.65198 103.605 10.2098C103.605 10.7675 103.688 11.3236 103.856 11.8224C104.022 12.3313 104.273 12.7593 104.606 13.1385V13.1334ZM105.238 8.58026C105.358 8.28368 105.512 8.03597 105.703 7.82196C105.895 7.60795 106.132 7.44281 106.406 7.32317C106.68 7.20521 107.002 7.14623 107.347 7.14623C108.038 7.14623 108.563 7.36024 108.932 7.77478C109.301 8.18931 109.516 8.78247 109.552 9.54077H105.002C105.05 9.19701 105.121 8.87684 105.239 8.58026H105.238Z" fill="white"/>
<path id="Vector_3" d="M117.102 6.29346L115.696 10.5146C115.613 10.7758 115.529 11.0488 115.448 11.3437C115.365 11.6403 115.292 11.9133 115.221 12.1627C115.15 12.4475 115.077 12.7322 115.018 13.0035H114.994C114.911 12.7306 114.838 12.4593 114.755 12.1627C114.684 11.9015 114.601 11.6403 114.516 11.3437C114.433 11.0471 114.349 10.7742 114.266 10.5146L112.896 6.29346H111.443L114.171 14.1174H115.683L118.505 6.29346H117.1H117.102Z" fill="white"/>
<path id="Vector_4" d="M44.2377 33.8096H43.166V34.947H44.2377V33.8096Z" fill="white"/>
<path id="Vector_5" d="M42.0932 33.8096H41.0215V34.947H42.0932V33.8096Z" fill="white"/>
<path id="Vector_6" d="M65.9418 24.811H64.8701V25.9485H65.9418V24.811Z" fill="white"/>
<path id="Vector_7" d="M68.0737 24.811H67.002V25.9485H68.0737V24.811Z" fill="white"/>
<path id="Vector_8" d="M65.0716 27.3486C64.6314 27.6098 64.2962 27.9535 64.0591 28.3681C63.8204 28.7826 63.7018 29.2342 63.7018 29.7077C63.7018 30.1223 63.7848 30.5014 63.9524 30.8334C64.12 31.1653 64.3571 31.4383 64.667 31.6389H62.8942C62.879 31.6321 62.8604 31.6271 62.8333 31.6271C62.2018 31.6271 61.7615 31.4131 61.4754 30.9749C61.643 30.6076 61.726 30.2031 61.726 29.7414C61.726 29.2426 61.6075 28.7809 61.3688 28.3546C61.1419 27.9283 60.7965 27.5963 60.3444 27.3351C59.8924 27.0739 59.3556 26.9442 58.7376 26.9559C58.272 26.9559 57.6185 27.0385 56.7719 27.1935V31.6389H55.8949C55.8847 31.6372 55.8746 31.6355 55.8593 31.6389H55.8543C55.8543 31.6389 55.8526 31.6389 55.8509 31.6389H54.4151C54.4016 31.6355 54.3863 31.6338 54.366 31.6389H52.9336C52.9201 31.6355 52.9048 31.6338 52.8896 31.6389H51.4572C51.4437 31.6355 51.4284 31.6338 51.4132 31.6389H50.0096C49.9944 31.6321 49.9757 31.6271 49.9486 31.6271H49.7218C49.4001 31.6271 49.1614 31.5445 49.0073 31.3895C48.8532 31.2344 48.7686 30.9749 48.794 30.5941V25.8286H46.7689C46.2322 25.8286 45.7683 25.9466 45.3755 26.1724C44.9709 26.3982 44.6729 26.7167 44.4579 27.1093C44.2445 27.5002 44.1362 27.9518 44.1362 28.4372V31.6153H41.7421C41.1224 31.6153 40.6585 31.472 40.3605 31.1872C40.0625 30.9025 39.9068 30.5469 39.9068 30.097V26.8953H38.918V30.1796C38.918 30.8907 39.1567 31.4484 39.6206 31.8748C40.0862 32.2893 40.7296 32.5033 41.5271 32.5033H45.1249V28.5079C45.1249 27.999 45.2807 27.571 45.577 27.2273C45.875 26.8835 46.3271 26.7167 46.9467 26.7167H47.7916V30.6531C47.7916 31.2108 47.9355 31.649 48.2217 31.9927C48.5078 32.3365 48.948 32.5016 49.544 32.5016H49.5778C49.5931 32.5084 49.6117 32.5134 49.6388 32.5134H55.8458C55.8729 32.5134 55.8932 32.5084 55.9101 32.5016H59.0017C59.8585 32.5016 60.5374 32.2168 61.0504 31.6237C61.5127 32.1882 62.0883 32.4797 62.7757 32.4983C62.7926 32.5084 62.8113 32.5134 62.8384 32.5134H68.5916V27.1902C67.7349 27.0234 67.0915 26.9425 66.6259 26.9526C66.0417 26.9526 65.5169 27.084 65.0767 27.3435L65.0716 27.3486ZM60.236 31.1417C59.9143 31.4619 59.4606 31.6271 58.8663 31.6271H57.759V27.94C58.0689 27.8811 58.3905 27.8457 58.7478 27.8339C59.3793 27.8339 59.8551 28.0125 60.2005 28.3681C60.5459 28.7236 60.7118 29.1988 60.7118 29.7667C60.7118 30.3346 60.5577 30.8216 60.236 31.1417ZM67.5859 31.6389H66.5378C66.1687 31.6389 65.847 31.5563 65.5728 31.3911C65.3103 31.2243 65.097 31.0002 64.9548 30.7272C64.8109 30.4542 64.7398 30.1459 64.7398 29.8257C64.7398 29.2443 64.9074 28.7826 65.2274 28.4035C65.549 28.0243 66.0028 27.8474 66.5616 27.8592C66.8714 27.8592 67.2049 27.8946 67.5859 27.9906V31.6422V31.6389Z" fill="white"/>
<path id="Vector_9" d="M74.2672 31.639H72.8687C72.8552 31.6356 72.8416 31.6356 72.8264 31.639C72.4929 31.639 72.2304 31.5564 72.0273 31.4132C71.8376 31.2717 71.6582 31.0577 71.5278 30.7965V27.0505H70.539V32.5389C70.539 33.0966 70.4069 33.5112 70.158 33.7724C69.9075 34.0336 69.5147 34.1987 68.9678 34.2695L69.3606 35.1592C70.8014 34.8862 71.5159 33.9982 71.5159 32.4917V31.9929C71.8732 32.3265 72.2981 32.5018 72.7773 32.5119C72.7925 32.5203 72.8112 32.5254 72.8383 32.5254H75.256V23.8589H74.2672V31.6356V31.639Z" fill="white"/>
<path id="Vector_10" d="M78.4019 23.8623H77.4131V32.5288H78.4019V23.8623Z" fill="white"/>
<path id="Vector_11" d="M89.1685 32.5286V27.0638H88.1915V31.6388H85.9769C85.9634 31.6355 85.9481 31.6355 85.9278 31.6388C85.5943 31.6388 85.3318 31.5563 85.1304 31.413C84.939 31.2715 84.7613 31.0575 84.6292 30.7963V27.0503H83.6404V32.5387C83.6404 33.0965 83.5219 33.511 83.2713 33.7722C83.0207 34.0334 82.6279 34.1985 82.0811 34.2693L82.4739 35.159C83.9147 34.886 84.6292 33.998 84.6292 32.4915V31.9927C84.9831 32.323 85.4029 32.4982 85.8787 32.5117C85.894 32.5218 85.9126 32.5269 85.9397 32.5269H89.1668L89.1685 32.5286Z" fill="white"/>
<path id="Vector_12" d="M87.2397 33.8096H86.168V34.947H87.2397V33.8096Z" fill="white"/>
<path id="Vector_13" d="M89.3716 33.8096H88.2998V34.947H89.3716V33.8096Z" fill="white"/>
<path id="Vector_14" d="M111.646 24.811H110.574V25.9485H111.646V24.811Z" fill="white"/>
<path id="Vector_15" d="M109.502 24.811H108.431V25.9485H109.502V24.811Z" fill="white"/>
<path id="Vector_16" d="M113.778 31.639H112.349C112.349 31.639 112.346 31.639 112.342 31.639C112.341 31.639 112.339 31.639 112.337 31.639C111.408 31.639 110.776 31.3778 110.478 30.8689C110.538 30.6431 110.573 30.4308 110.561 30.2404V27.0269H109.573V30.1443C109.573 30.5707 109.44 30.9262 109.18 31.211C108.917 31.4958 108.572 31.6373 108.155 31.6373H107.221C107.202 31.6239 107.18 31.6137 107.143 31.6137C106.511 31.6137 106.071 31.4014 105.785 30.9616C105.953 30.5943 106.036 30.1915 106.036 29.7281C106.036 29.231 105.917 28.7676 105.69 28.3413C105.463 27.9149 105.13 27.583 104.678 27.3218C104.226 27.0724 103.689 26.9426 103.057 26.9426C102.378 26.9426 101.735 27.0741 101.115 27.3471C100.496 27.62 99.8167 27.9992 99.0667 28.4963V23.8606H98.0779V31.6373H96.7302C96.7166 31.6306 96.698 31.6255 96.6726 31.6255H95.5281V27.1802C95.3605 27.1448 95.2538 27.133 95.2064 27.1213C94.5393 26.9915 94.0026 26.9308 93.5742 26.9308C92.9782 26.9308 92.4551 27.0623 92.0132 27.3218C91.5729 27.583 91.2275 27.9267 91.0006 28.3531C90.7738 28.7794 90.6553 29.2428 90.6553 29.7281C90.6553 30.2134 90.7619 30.6886 90.9769 31.115C91.192 31.5413 91.5018 31.8732 91.9183 32.1226C92.3348 32.372 92.8242 32.49 93.3964 32.49H93.7774L94.1702 31.6003H93.4557C92.8952 31.6003 92.455 31.4351 92.1452 31.0796C91.8353 30.7358 91.6813 30.3095 91.6813 29.7989C91.6813 29.2192 91.8489 28.7558 92.1689 28.3767C92.5025 28.0093 92.9545 27.8189 93.5268 27.8189C93.8248 27.8189 94.1702 27.8661 94.5393 27.9503V32.5153C94.5393 33.0596 94.3717 33.464 94.0381 33.7252C93.7164 33.9864 93.2051 34.1633 92.5143 34.2695L92.919 35.1592C93.7757 35.0177 94.4191 34.7329 94.861 34.3167C95.3012 33.9021 95.5162 33.2972 95.5281 32.5153H96.6726C96.7098 32.5153 96.7353 32.5052 96.7522 32.4917H103.306C104.165 32.4917 104.844 32.2069 105.355 31.6137C105.807 32.1648 106.366 32.4563 107.031 32.4849C107.031 32.4866 107.033 32.4883 107.035 32.49C107.058 32.5136 107.082 32.5254 107.129 32.5254H108.333C108.726 32.5254 109.071 32.4428 109.381 32.276C109.691 32.0991 109.942 31.8732 110.143 31.5885C110.394 31.9086 110.68 32.1446 111.025 32.2996C111.371 32.4529 111.801 32.5254 112.336 32.5254C112.337 32.5254 112.339 32.5254 112.342 32.5254C112.344 32.5254 112.346 32.5254 112.348 32.5254H114.765V23.8589H113.776V31.6356L113.778 31.639ZM104.547 31.1419C104.226 31.4621 103.774 31.6272 103.178 31.6272H99.0684V29.4231C99.8303 28.8771 100.497 28.4862 101.093 28.225C101.689 27.9756 102.297 27.8458 102.952 27.8341C103.381 27.8341 103.762 27.9166 104.072 28.0952C104.381 28.2739 104.62 28.5098 104.774 28.8064C104.93 29.1029 105.013 29.4231 105.025 29.7669C105.025 30.36 104.871 30.8217 104.549 31.1419H104.547Z" fill="white"/>
<path id="Vector_17" d="M117.913 23.8623H116.924V32.5288H117.913V23.8623Z" fill="white"/>
<path id="Vector_18" d="M58.0678 13.8681C58.9617 13.772 59.6525 13.2985 60.3551 12.6228C60.3551 13.1435 60.367 13.5597 60.3551 13.9625C60.3196 15.0527 59.8184 15.7402 58.9143 15.9896C57.8544 16.2862 56.8301 15.9425 56.2696 15.0763C56.1376 14.8741 56.0072 14.7915 55.7685 14.7915C55.2809 14.8033 54.8034 14.8033 54.3276 14.7915C53.9941 14.7797 53.923 14.9095 53.9941 15.2061C54.2091 16.1548 54.7441 16.8659 55.5788 17.3529C56.5202 17.8972 57.5446 18.0168 58.6045 17.9932C60.7733 17.946 62.4275 16.5356 62.5122 14.377C62.6443 11.7095 62.5714 9.03016 62.5833 6.36263C62.5833 5.57288 62.1781 5.17801 61.3676 5.17801C60.7322 5.17801 60.3946 5.47852 60.3551 6.07954C60.3551 6.10313 60.2959 6.12672 60.2603 6.13852C58.3302 4.22929 55.2216 4.85784 54.1262 7.05184C53.3761 8.55664 53.3507 10.1103 54.0432 11.6404C54.7933 13.2884 56.2713 14.0585 58.0694 13.8698L58.0678 13.8681ZM58.0914 6.944C59.4019 6.9322 60.367 7.98708 60.3788 9.4211C60.3788 10.9023 59.4256 11.969 58.0914 11.9589C56.8165 11.9589 55.8396 10.8686 55.8396 9.44638C55.8396 8.02415 56.7928 6.944 58.0914 6.944Z" fill="white"/>
<path id="Vector_19" d="M43.3204 13.7146C46.048 13.5477 48.0611 11.5206 48.1915 8.88843C48.3337 5.7356 46.7269 3.55339 43.8672 3.05628C42.3417 2.7833 40.8061 2.98551 39.2806 2.91474C38.8048 2.89114 38.6372 3.0091 38.649 3.51969C38.6846 5.13233 38.6609 6.73318 38.6609 8.34583C38.6609 9.95847 38.6727 11.6419 38.6609 13.2899C38.6609 13.6101 38.7083 13.787 39.1011 13.787C40.5064 13.7516 41.9117 13.7988 43.317 13.7163L43.3204 13.7146ZM41.3072 4.78689C42.081 4.83407 42.8564 4.71611 43.6183 4.92844C44.6308 5.22501 45.3927 5.84176 45.6789 6.84946C46.1191 8.35425 46.1445 9.83715 44.9051 11.0454C44.1669 11.7683 43.2018 11.8761 42.2249 11.898C41.3118 11.9216 40.8552 11.4751 40.8552 10.5584V8.36436C40.8552 7.32128 40.867 6.2782 40.8433 5.23512C40.8314 4.87957 40.95 4.77172 41.3089 4.7852L41.3072 4.78689Z" fill="white"/>
<path id="Vector_20" d="M82.9515 13.7616C83.4154 13.8205 83.4984 13.6082 83.4984 13.192C83.4866 10.939 83.4984 8.66244 83.4984 6.38754C83.4984 5.5742 83.1011 5.16753 82.3064 5.16753C81.6631 5.16753 81.3256 5.48377 81.294 6.11624C81.294 6.13983 81.2466 6.16342 81.211 6.18702C79.484 4.31318 76.494 4.80017 75.3155 6.61335C74.5299 7.82325 74.3505 9.12584 74.6129 10.5026C74.9109 12.0444 75.7202 13.2173 77.2694 13.6925C78.7695 14.1542 80.1155 13.834 81.2719 12.6022C81.3114 13.3762 81.6845 13.7632 82.3911 13.7632C82.5824 13.7632 82.7721 13.7397 82.9515 13.7632V13.7616ZM78.9727 11.9602C77.6859 11.9366 76.7445 10.8227 76.7683 9.35164C76.792 7.9648 77.757 6.93352 79.0557 6.95711C80.3661 6.9689 81.343 8.07096 81.3075 9.53027C81.2601 10.9525 80.2832 11.9838 78.9727 11.9602Z" fill="white"/>
<path id="Vector_21" d="M69.3719 7.45426C69.3363 8.68775 69.3482 9.91957 69.3601 11.1531C69.3838 12.8247 70.1812 13.642 71.849 13.738C72.0166 13.7498 72.1825 13.7616 72.2773 13.7734C73.0945 13.797 73.5077 13.4257 73.5167 12.6595C73.5167 12.577 73.5048 12.4927 73.5167 12.4118C73.576 12.0327 73.4337 11.8541 73.0409 11.913C72.8733 11.9366 72.7074 11.9248 72.5398 11.913C71.8016 11.8895 71.6102 11.6872 71.6102 10.9643C71.6102 9.81509 71.6339 8.66416 71.5984 7.51492C71.5865 7.02792 71.7304 6.92176 72.1944 6.93356C73.5997 6.95715 73.5878 6.93356 73.5285 5.55851C73.5167 5.26193 73.4456 5.16757 73.1357 5.15577C72.6481 5.14398 71.9573 5.39337 71.7067 5.04961C71.4561 4.70585 71.6238 4.05371 71.6102 3.53133V3.47235C71.6712 3.105 71.4917 3.00895 71.1463 3.03423C70.7298 3.05782 70.2997 3.06961 69.8832 3.03423C69.4786 2.99884 69.311 3.1168 69.3465 3.54313C69.3821 3.95766 69.3465 4.38568 69.3584 4.80022C69.3702 5.04961 69.2991 5.22655 69.013 5.16757C68.3222 5.03613 68.2629 5.42876 68.3222 5.94946C68.3459 6.11628 68.3459 6.28142 68.3222 6.44825C68.2629 6.86278 68.4407 7.01781 68.8471 6.94535C69.2517 6.88638 69.3838 7.04141 69.3702 7.45426H69.3719Z" fill="white"/>
<path id="Vector_22" d="M85.6076 12.1139C85.6076 13.8209 85.6076 13.7973 87.299 13.7973C87.7646 13.7973 87.8459 13.6305 87.8459 13.2159C87.8222 11.4971 87.834 9.79011 87.834 8.08309C87.834 6.70805 87.834 5.333 87.8222 3.95796C87.8103 3.42378 88.0609 2.72615 87.7155 2.39418C87.3819 2.07401 86.6793 2.347 86.1426 2.28802C85.6787 2.24084 85.5957 2.42957 85.5957 2.85758C85.6194 5.95144 85.6076 9.03518 85.6076 12.1172V12.1139Z" fill="white"/>
<path id="Vector_23" d="M66.3826 5.17801C65.9898 5.2134 65.5851 5.2134 65.1923 5.17801C64.7521 5.13083 64.6675 5.31956 64.681 5.71219C64.7047 6.95748 64.6929 8.21288 64.6929 9.45818V12.1493C64.6929 13.8091 64.6929 13.7973 66.3488 13.7973C66.7653 13.7973 66.921 13.703 66.921 13.253C66.8973 10.7271 66.8973 8.21457 66.921 5.68859C66.9329 5.25047 66.7788 5.15442 66.3843 5.17969L66.3826 5.17801Z" fill="white"/>
<path id="Vector_24" d="M49.9198 13.6792C50.2178 13.9404 50.8848 13.7264 51.3843 13.7736C51.8719 13.8208 52.0277 13.6674 52.0158 13.1568C51.9921 11.0589 52.004 8.94914 52.004 6.83771C52.004 5.1189 52.004 5.13069 50.2533 5.16608C49.8961 5.16608 49.7894 5.26213 49.7894 5.616C49.8131 6.88489 49.8013 8.16557 49.8013 9.43445C49.8013 10.3596 49.7894 11.2712 49.8131 12.1845C49.825 12.6934 49.5744 13.381 49.9198 13.6775V13.6792Z" fill="white"/>
<path id="Vector_25" d="M50.9685 4.17012C51.7067 4.15832 52.3027 3.57696 52.3027 2.87764C52.3027 2.14294 51.683 1.56157 50.9093 1.58517C50.1592 1.59696 49.5869 2.15473 49.5869 2.87764C49.5869 3.60055 50.1829 4.18191 50.9685 4.17012Z" fill="white"/>
<path id="Vector_26" d="M65.8099 4.1704C66.6073 4.1704 67.1914 3.58904 67.1559 2.84254C67.144 2.11963 66.5599 1.58545 65.798 1.58545C65.0361 1.58545 64.4164 2.17861 64.4401 2.91331C64.4638 3.62443 65.0581 4.1704 65.8099 4.1704Z" fill="white"/>
<path id="Vector_27" d="M20.2126 13.0153C19.5218 12.8013 18.7954 12.7187 18.0691 12.6125C16.3895 12.3749 14.8403 11.8896 13.5315 10.7151C11.9942 9.35187 11.2086 7.65665 10.9817 5.65306C10.8852 4.79871 10.8733 3.91066 10.2418 3.22314C10.0996 2.95015 9.94381 2.66537 9.80159 2.39238C9.69492 2.29802 9.77617 2.07221 9.56283 2.04862C9.35966 1.82282 9.14636 1.62229 8.91948 1.43187C7.94932 0.643242 6.7438 0.242188 5.55184 0.242188C4.00433 0.242188 2.47713 0.917915 1.52221 2.29802C0.414905 3.89718 0.30657 5.57049 1.08202 7.31289C1.82191 8.97272 3.20181 9.82538 4.94234 10.0158C7.18234 10.2534 9.20561 10.8449 10.7785 12.1727C11.5404 12.8013 12.1838 13.6202 12.7087 14.6515C14.9842 19.0143 12.1263 24.7874 7.22975 25.6654C7.08753 25.689 6.93174 25.7126 6.78952 25.7361C5.98021 25.8541 5.15737 25.9131 4.34806 26.0799C2.20456 26.518 0.596074 28.6649 0.596074 30.9532C0.596074 32.6956 2.03693 35.139 4.37174 35.6715C5.13364 35.8013 5.89724 35.7659 6.65915 35.6951C7.15862 35.4811 7.6835 35.316 8.15927 35.043C9.99292 33.9881 10.4585 32.1985 10.6244 30.2775C10.6955 29.376 10.9343 28.5115 11.2915 27.7161C12.3277 25.4042 14.4001 23.6618 16.5571 23.2708C18.1283 22.9861 19.8452 23.0922 21.2623 22.0963C22.0124 22.1553 22.417 21.6464 22.7523 21.124C24.0035 19.2148 24.0627 17.2348 23.0028 15.2194C22.3832 14.0938 21.4181 13.4062 20.216 13.0153H20.2126Z" fill="white"/>
<path id="Vector_28" d="M7.63463 22.4755C10.3622 21.2909 11.2562 18.374 9.81369 15.2785C9.57496 15.0173 9.36161 14.7578 9.11102 14.5202C7.49071 12.921 4.48881 12.648 2.72627 13.9152C2.48754 13.868 2.36903 14.0096 2.26236 14.1882L2.01178 14.4376C1.95252 14.5555 1.89158 14.6752 1.80861 14.7813C0.283113 16.6417 0.188302 19.0733 1.55804 20.8983C2.93962 22.735 5.50129 23.4007 7.63293 22.4755H7.63463Z" fill="white"/>
<path id="Vector_29" d="M17.2695 7.73917C19.0202 7.90599 20.4272 7.00446 20.8437 5.39182C20.9504 4.98907 20.9148 4.53915 20.9385 4.09934C20.6879 2.64172 19.7838 1.77558 18.4242 1.31386C17.9721 1.23129 17.5066 1.24309 17.0426 1.30207C16.6735 1.39643 16.3163 1.50428 15.9472 1.61044C15.8761 1.64583 15.7931 1.65762 15.805 1.75199C15.0312 2.40412 14.4352 3.16242 14.376 4.22909C14.376 4.39592 14.3759 4.54926 14.3878 4.7144C14.4843 6.31525 15.6864 7.58414 17.2712 7.73748L17.2695 7.73917Z" fill="white"/>
<path id="Vector_30" d="M25.7269 12.1847C26.9307 12.3044 27.8839 11.6876 28.17 10.5856C28.2411 10.3008 28.2056 9.9924 28.2293 9.69582C28.0515 8.71172 27.4318 8.11856 26.5142 7.80007C26.2043 7.7411 25.8826 7.75289 25.5728 7.78828L24.8227 8.00229C24.7753 8.02588 24.7279 8.02588 24.7279 8.09665C24.1912 8.54658 23.7865 9.05716 23.751 9.79187C23.751 9.91151 23.751 10.0177 23.7628 10.1238C23.8221 11.2141 24.645 12.0802 25.7286 12.1864L25.7269 12.1847Z" fill="white"/>
<path id="Vector_31" d="M28.5261 15.8127C28.2755 15.7773 28.0148 15.7773 27.7642 15.8127C27.5729 15.8599 27.3714 15.9188 27.1683 15.9795C27.1327 15.9913 27.0971 15.9913 27.0971 16.0503C26.6688 16.4058 26.3471 16.8322 26.3115 17.4135C26.3115 17.4961 26.3233 17.5905 26.3233 17.6747C26.3826 18.5527 27.0379 19.252 27.9081 19.3345C28.8732 19.4289 29.647 18.9436 29.8739 18.0539C29.9331 17.8281 29.9094 17.5803 29.9212 17.3427C29.7892 16.5491 29.2897 16.0739 28.5278 15.8144L28.5261 15.8127Z" fill="white"/>
<path id="Vector_32" d="M26.5122 23.2944C26.2024 23.2337 25.8807 23.2472 25.5708 23.2826C25.3202 23.3533 25.0697 23.4241 24.8208 23.4966C24.7734 23.5202 24.726 23.5202 24.726 23.5909C24.1892 24.0409 23.7846 24.5514 23.749 25.2862C23.749 25.4058 23.749 25.512 23.7609 25.6181C23.8201 26.7084 24.643 27.5745 25.7266 27.6807C26.9304 27.8003 27.8836 27.1836 28.1698 26.0815C28.2409 25.7967 28.2053 25.4884 28.229 25.1918C28.0512 24.2077 27.4316 23.6145 26.5139 23.296L26.5122 23.2944Z" fill="white"/>
<path id="Vector_33" d="M17.5558 26.6478C17.1038 26.5653 16.6381 26.5771 16.1742 26.6361C15.8051 26.7304 15.4479 26.8383 15.0788 26.9444C15.0077 26.9798 14.923 26.9916 14.9349 27.086C14.1611 27.7381 13.5651 28.4964 13.5059 29.5631C13.5059 29.7299 13.5059 29.8832 13.5177 30.0484C13.6142 31.6492 14.8164 32.9181 16.4011 33.0715C18.1518 33.2366 19.5588 32.3368 19.9753 30.7241C20.0819 30.3214 20.0464 29.8715 20.0701 29.4316C19.8195 27.9858 18.9154 27.1197 17.5558 26.6462V26.6478Z" fill="white"/>
</g>
</svg>
