<svg width="148" height="38" viewBox="0 0 148 38" fill="none" xmlns="http://www.w3.org/2000/svg">
<g id="Group">
<path id="Vector" d="M144.207 3.67883C141.313 0.598456 135.062 0.25975 128.813 0.155273C122.562 0.25975 116.311 0.596771 113.417 3.67883C110.322 6.55867 109.982 12.7801 109.877 19.0015C109.982 25.2229 110.321 31.4443 113.417 34.3225C116.311 37.4028 122.562 37.7415 128.813 37.846C135.064 37.7415 141.315 37.4045 144.207 34.3225C147.302 31.4426 147.642 25.2212 147.747 19.0015C147.642 12.7801 147.303 6.55867 144.207 3.67883ZM135.086 7.75847C135.086 7.42482 135.357 7.1552 135.692 7.1552H137.984C138.32 7.1552 138.591 7.42482 138.591 7.75847V14.3388C138.591 14.6725 138.32 14.9421 137.984 14.9421H135.692C135.357 14.9421 135.086 14.6725 135.086 14.3388V7.75847ZM124.9 9.90698C124.9 9.57333 125.171 9.30371 125.506 9.30371H132.118C132.453 9.30371 132.724 9.57333 132.724 9.90698V12.1886C132.724 12.5223 132.453 12.7919 132.118 12.7919H125.506C125.171 12.7919 124.9 12.5223 124.9 12.1886V9.90698ZM130.565 15.7088V22.2891C130.565 22.6228 130.294 22.8924 129.959 22.8924H127.667C127.331 22.8924 127.06 22.6228 127.06 22.2891V15.7088C127.06 15.3751 127.331 15.1055 127.667 15.1055H129.959C130.294 15.1055 130.565 15.3751 130.565 15.7088ZM119.033 7.75678C119.033 7.42313 119.304 7.15352 119.639 7.15352H121.932C122.267 7.15352 122.538 7.42313 122.538 7.75678V14.3371C122.538 14.6708 122.267 14.9404 121.932 14.9404H119.639C119.304 14.9404 119.033 14.6708 119.033 14.3371V7.75678ZM122.54 30.2411C122.54 30.5748 122.269 30.8444 121.934 30.8444H119.641C119.306 30.8444 119.035 30.5748 119.035 30.2411V23.6608C119.035 23.3272 119.306 23.0575 119.641 23.0575H121.934C122.269 23.0575 122.54 23.3272 122.54 23.6608V30.2411ZM117.479 20.7439C117.144 20.7439 116.873 20.4743 116.873 20.1406V17.859C116.873 17.5253 117.144 17.2557 117.479 17.2557H124.091C124.426 17.2557 124.697 17.5253 124.697 17.859V20.1406C124.697 20.4743 124.426 20.7439 124.091 20.7439H117.479ZM133.188 26.79C133.066 26.9366 132.917 27.1001 132.744 27.2619C131.645 28.2898 130.23 28.8122 128.811 28.8324C127.391 28.8122 125.977 28.2898 124.878 27.2619C124.705 27.1018 124.556 26.9383 124.434 26.79C124.208 26.5154 124.267 26.1076 124.561 25.907L125.577 25.2195C125.819 25.0561 126.146 25.0881 126.351 25.297L126.539 25.4875C127.174 26.0806 127.99 26.3873 128.809 26.4075C129.631 26.389 130.445 26.0823 131.08 25.4875L131.268 25.297C131.473 25.0881 131.799 25.0561 132.042 25.2195L133.057 25.907C133.354 26.1076 133.411 26.5154 133.184 26.79H133.188ZM138.591 30.2411C138.591 30.5748 138.32 30.8444 137.984 30.8444H135.692C135.357 30.8444 135.086 30.5748 135.086 30.2411V23.6608C135.086 23.3272 135.357 23.0575 135.692 23.0575H137.984C138.32 23.0575 138.591 23.3272 138.591 23.6608V30.2411ZM140.749 20.1406C140.749 20.4743 140.478 20.7439 140.143 20.7439H133.532C133.196 20.7439 132.925 20.4743 132.925 20.1406V17.859C132.925 17.5253 133.196 17.2557 133.532 17.2557H140.143C140.478 17.2557 140.749 17.5253 140.749 17.859V20.1406Z" fill="white"/>
<g id="Group_2">
<path id="Vector_2" d="M9.10899 15.2487V16.3052H6.99597V12.6957H6.35936C5.8328 12.6957 5.4637 13.0631 5.4637 13.5956V16.0204C5.4637 17.5539 4.29206 18.7031 2.74963 18.7031H2.69375C1.15301 18.7031 0 17.5556 0 16.0204V14.2106H1.05143V16.0204C1.05143 16.9843 1.72529 17.6466 2.69375 17.6466H2.74963C3.71809 17.6466 4.39195 16.986 4.39195 16.0204V13.5956C4.39195 12.475 5.2419 11.6392 6.35767 11.6392H8.05587V15.2487H9.1073H9.10899ZM2.33481 19.7951C2.33481 20.154 2.04868 20.4388 1.6982 20.4388C1.34772 20.4388 1.06159 20.154 1.06159 19.7951C1.06159 19.4547 1.35619 19.1615 1.6982 19.1615C2.04021 19.1615 2.33481 19.4547 2.33481 19.7951ZM4.15322 19.7951C4.15322 20.154 3.85862 20.4388 3.51661 20.4388C3.1746 20.4388 2.86984 20.154 2.86984 19.7951C2.86984 19.4547 3.16444 19.1615 3.51661 19.1615C3.86878 19.1615 4.15322 19.4547 4.15322 19.7951Z" fill="white"/>
<path id="Vector_3" d="M10.9103 15.2485V16.3051H8.97168V15.2485H10.9103Z" fill="white"/>
<path id="Vector_4" d="M12.6642 15.2485V16.3051H10.7256V15.2485H12.6642Z" fill="white"/>
<path id="Vector_5" d="M18.3587 14.5507C18.3587 15.5146 17.5748 16.3049 16.6046 16.3049H12.5716L12.1094 16.1398V15.4135L12.5716 15.2484H16.5301C16.9923 15.2484 17.2954 14.8726 17.2954 14.4125C17.2954 13.8345 16.862 13.5397 16.2795 13.5397H13.2438L13.1337 13.0796L14.9335 9.91162L15.7818 10.252L14.6558 12.4831H16.2795C17.4512 12.4831 18.3553 13.393 18.3553 14.549L18.3587 14.5507Z" fill="white"/>
<path id="Vector_6" d="M23.9711 15.2486V16.3052H19.1914V15.2486H21.9038V13.6967C21.9038 13.1001 21.489 12.6856 20.8879 12.6856H19.9838V11.6206H20.8879C22.0697 11.6206 22.9637 12.512 22.9637 13.6967V15.2486H23.9694H23.9711ZM20.3072 10.0315C20.3072 9.69116 20.6018 9.39795 20.9539 9.39795C21.3061 9.39795 21.5906 9.69116 21.5906 10.0315C21.5906 10.3719 21.296 10.6753 20.9539 10.6753C20.6119 10.6753 20.3072 10.382 20.3072 10.0315Z" fill="white"/>
<path id="Vector_7" d="M25.8273 9.91357V15.2048C25.8273 15.83 25.3464 16.3069 24.7284 16.3069H23.8802L23.418 16.1316V15.4154L23.8802 15.2503H24.378C24.5625 15.2503 24.7657 15.1222 24.7657 14.8375V9.91357H25.8273Z" fill="white"/>
<path id="Vector_8" d="M26.9072 16.3049V9.91162H27.9688V16.3049H26.9072Z" fill="white"/>
<path id="Vector_9" d="M34.2387 15.2486V16.3052H29.459V15.2486H32.1714V13.6967C32.1714 13.1001 31.7565 12.6856 31.1555 12.6856H30.1396V11.6206H31.1555C32.3373 11.6206 33.2313 12.512 33.2313 13.6967V15.2486H34.237H34.2387Z" fill="white"/>
<path id="Vector_10" d="M36.0021 15.2485V16.3051H34.0635V15.2485H36.0021Z" fill="white"/>
<path id="Vector_11" d="M37.757 15.2485V16.3051H35.8184V15.2485H37.757Z" fill="white"/>
<path id="Vector_12" d="M42.1776 15.2486V16.3052H37.6468L37.1846 16.13V15.4138L37.6468 15.2486H38.6339C38.3207 14.8998 38.1547 14.4398 38.1547 13.8803C38.1547 11.6122 40.1289 11.0696 41.7814 11.6661V12.6401C40.4895 12.1531 39.3365 12.512 39.3365 13.9174C39.3365 14.9554 39.9545 15.2486 40.7672 15.2486H42.1793H42.1776Z" fill="white"/>
<path id="Vector_13" d="M43.838 9.91357V14.8375C43.838 15.1222 44.0411 15.2503 44.2257 15.2503H44.7235V16.3069H43.8837C43.2657 16.3069 42.7764 15.8283 42.7764 15.2048V9.91357H43.838Z" fill="white"/>
<path id="Vector_14" d="M52.9663 15.2486V16.3052H52.3941C51.9962 16.3136 51.6559 16.13 51.4611 15.8367C51.2207 16.13 50.8973 16.3052 50.3809 16.3052H49.7342C49.3193 16.3052 48.9773 16.0845 48.8114 15.8367C48.6082 16.1401 48.2391 16.3052 47.7414 16.3052H47.142C46.717 16.3052 46.3665 16.0946 46.2091 15.8182C45.9974 16.1215 45.6741 16.3052 44.9443 16.3052H44.6497L44.1875 16.13V15.4138L44.6497 15.2486H44.8529C45.3151 15.2486 45.5081 15.0094 45.5081 14.6521V12.6317H46.5596V14.6521C46.5596 15.0565 46.8084 15.2486 47.1318 15.2486H47.5467C47.8971 15.2486 48.1274 15.0094 48.1274 14.6521V12.6317H49.1602V14.6521C49.1602 15.011 49.3905 15.2486 49.7596 15.2486H50.1845C50.5452 15.2486 50.7483 15.0094 50.7483 14.6521V11.7588H51.7811V14.6521C51.7811 15.011 52.0114 15.2486 52.3907 15.2486H52.9629H52.9663Z" fill="white"/>
<path id="Vector_15" d="M58.9201 15.2484V16.305H58.6069C58.0719 16.305 57.6283 16.0572 57.3709 15.6714C57.0475 16.0387 56.5684 16.278 56.0418 16.278C55.4611 16.278 54.9159 16.0758 54.5011 15.727C54.2336 16.0859 53.79 16.305 53.282 16.305H52.9316L52.4795 16.1398V15.4135L52.9316 15.2484H53.282C53.6325 15.2484 53.8729 15.0007 53.8729 14.6519V13.624C53.8729 12.4764 54.7398 11.6035 55.8945 11.6035H55.9961C57.1491 11.6035 58.0177 12.4764 58.0177 13.624V14.6519C58.0177 15.0007 58.2581 15.2484 58.6086 15.2484H58.9218H58.9201ZM56.9544 14.2559V13.6223C56.9544 13.0443 56.5582 12.6584 55.9944 12.6584H55.8928C55.329 12.6584 54.9328 13.0443 54.9328 13.6223V14.7058C55.1817 15.0361 55.5965 15.2113 56.0401 15.2113C56.5294 15.2113 56.9544 14.7884 56.9544 14.2559Z" fill="white"/>
<path id="Vector_16" d="M60.7677 9.91357V15.2048C60.7677 15.83 60.2869 16.3069 59.6689 16.3069H58.8206L58.3584 16.1316V15.4154L58.8206 15.2503H59.3184C59.503 15.2503 59.7061 15.1222 59.7061 14.8375V9.91357H60.7677Z" fill="white"/>
<path id="Vector_17" d="M61.8477 16.3049V9.91162H62.9092V16.3049H61.8477Z" fill="white"/>
<path id="Vector_18" d="M69.5301 15.2484V16.305H69.2355C68.6819 16.305 68.2197 16.0657 67.9166 15.6899C67.5847 16.0572 67.1225 16.278 66.4774 16.278C65.3888 16.278 64.5117 15.3596 64.5117 14.2576V13.624C64.5117 12.4764 65.3701 11.6035 66.5231 11.6035H68.6362V14.6536C68.6362 15.0024 68.8766 15.2501 69.2355 15.2501H69.5301V15.2484ZM67.5746 12.6584H66.5231C65.9593 12.6584 65.5733 13.0443 65.5733 13.6223V14.2559C65.5733 14.7884 65.9797 15.2113 66.4774 15.2113C66.921 15.2113 67.3257 15.0361 67.5763 14.7058V12.6567L67.5746 12.6584Z" fill="white"/>
<path id="Vector_19" d="M73.6471 15.2488V16.3054H72.6973C72.2723 16.3054 71.8846 16.0947 71.5984 15.7914C71.3309 16.0947 70.933 16.3054 70.3523 16.3054H69.4566L68.9961 16.1402V15.424L69.4566 15.2488H70.3709C70.9059 15.2488 71.0634 14.9185 71.0719 14.5225L71.0634 11.9595H72.1334V14.081C72.1334 14.1636 72.1334 14.2462 72.125 14.3388V14.4956C72.125 14.9084 72.3011 15.2488 72.8361 15.2488H73.6488H73.6471ZM71.1548 17.7933C71.1548 18.1421 70.8602 18.437 70.5182 18.437C70.1762 18.437 69.8714 18.1438 69.8714 17.7933C69.8714 17.4428 70.166 17.1597 70.5182 17.1597C70.8704 17.1597 71.1548 17.4529 71.1548 17.7933ZM72.9631 17.7933C72.9631 18.1421 72.6769 18.437 72.3265 18.437C71.976 18.437 71.6898 18.1438 71.6898 17.7933C71.6898 17.4428 71.976 17.1597 72.3265 17.1597C72.6769 17.1597 72.9631 17.4529 72.9631 17.7933Z" fill="white"/>
<path id="Vector_20" d="M77.0166 15.2488V16.3054H76.3698C75.9448 16.3054 75.5571 16.0947 75.271 15.7914C75.0035 16.0947 74.6073 16.3054 74.0248 16.3054H73.5169L73.0547 16.1402V15.424L73.5169 15.2488H74.0435C74.5785 15.2488 74.736 14.9185 74.7444 14.5225L74.736 11.9595H75.806V14.081C75.806 14.1636 75.806 14.2462 75.7975 14.3388V14.4956C75.7975 14.9084 75.9736 15.2488 76.5087 15.2488H77.0166ZM75.8991 17.977C75.8991 18.3258 75.6045 18.6207 75.2625 18.6207C74.9205 18.6207 74.6157 18.3275 74.6157 17.977C74.6157 17.6265 74.9103 17.3434 75.2625 17.3434C75.6147 17.3434 75.8991 17.6366 75.8991 17.977Z" fill="white"/>
<path id="Vector_21" d="M78.7706 9.91357V15.2048C78.7706 15.83 78.2898 16.3069 77.6718 16.3069H76.8235L76.3613 16.1316V15.4154L76.8235 15.2503H77.3213C77.5059 15.2503 77.7091 15.1222 77.7091 14.8375V9.91357H78.7706Z" fill="white"/>
<path id="Vector_22" d="M85.326 15.2486V16.3051H85.0314C84.4778 16.3051 84.0155 16.0658 83.7125 15.6901C83.3806 16.0574 82.9184 16.2782 82.2733 16.2782C81.1847 16.2782 80.3076 15.3598 80.3076 14.2577V13.6241C80.3076 12.4766 81.166 11.6037 82.319 11.6037H84.4321V14.6537C84.4321 15.0025 84.6725 15.2503 85.0314 15.2503H85.326V15.2486ZM80.9612 10.2337C80.9612 9.89331 81.2558 9.6001 81.6079 9.6001C81.9601 9.6001 82.2445 9.89331 82.2445 10.2337C82.2445 10.5741 81.9499 10.8673 81.6079 10.8673C81.2659 10.8673 80.9612 10.5825 80.9612 10.2337ZM83.3705 12.6586H82.319C81.7552 12.6586 81.3692 13.0445 81.3692 13.6224V14.256C81.3692 14.7885 81.7756 15.2115 82.2733 15.2115C82.7169 15.2115 83.1216 15.0362 83.3722 14.706V12.6569L83.3705 12.6586ZM82.7796 10.2337C82.7796 9.89331 83.0742 9.6001 83.4162 9.6001C83.7582 9.6001 84.0528 9.89331 84.0528 10.2337C84.0528 10.5741 83.7667 10.8673 83.4162 10.8673C83.0657 10.8673 82.7796 10.5825 82.7796 10.2337Z" fill="white"/>
<path id="Vector_23" d="M87.1281 15.2485V16.3051H85.1895V15.2485H87.1281Z" fill="white"/>
<path id="Vector_24" d="M92.8216 14.5507C92.8216 15.5146 92.0377 16.3049 91.0675 16.3049H87.0345L86.5723 16.1398V15.4135L87.0345 15.2484H90.993C91.4552 15.2484 91.7583 14.8726 91.7583 14.4125C91.7583 13.8345 91.3249 13.5397 90.7424 13.5397H87.7067L87.5966 13.0796L89.3964 9.91162L90.2463 10.252L89.1204 12.4831H90.7441C91.9158 12.4831 92.8199 13.393 92.8199 14.549L92.8216 14.5507Z" fill="white"/>
<path id="Vector_25" d="M96.477 16.3051H95.6474V16.4147C95.6474 17.5454 94.789 18.398 93.6546 18.398H93.1924V17.3415H93.6546C94.1998 17.3415 94.5774 16.9657 94.5774 16.413V11.875H95.6474V15.2452H96.477V16.3018V16.3051Z" fill="white"/>
<path id="Vector_26" d="M95.9072 16.14V15.4137L96.3678 15.2486V16.3051L95.9072 16.14ZM103.455 11.6947V14.5695C103.455 15.5249 102.671 16.3051 101.711 16.3051C101.147 16.3051 100.724 16.1215 100.438 15.8181C100.106 16.1585 99.6355 16.3237 99.1648 16.3237C98.6941 16.3237 98.2793 16.1484 97.9644 15.8282C97.6782 16.1215 97.2634 16.3068 96.7927 16.3068H96.3779V15.2503H96.8215C97.1804 15.2503 97.4497 14.9924 97.4497 14.6251V12.6316H98.5011V14.6251C98.5011 15.0295 98.7415 15.2688 99.1936 15.2688C99.6185 15.2772 99.9131 15.0295 99.9131 14.6251V12.6316H100.975V14.6251C100.975 15.011 101.242 15.2503 101.713 15.2503C102.092 15.2503 102.387 14.9469 102.387 14.5712V11.6964H103.457L103.455 11.6947ZM98.7584 10.7763C98.7584 10.4359 99.053 10.1511 99.3951 10.1511C99.7371 10.1511 100.032 10.4359 100.032 10.7763C100.032 11.1352 99.7455 11.42 99.3951 11.42C99.0446 11.42 98.7584 11.1352 98.7584 10.7763ZM99.6727 9.38946C99.6727 9.04907 99.9589 8.75586 100.309 8.75586C100.66 8.75586 100.946 9.04907 100.946 9.38946C100.946 9.72985 100.66 10.0332 100.309 10.0332C99.9589 10.0332 99.6727 9.73996 99.6727 9.38946ZM100.54 10.7763C100.54 10.4359 100.834 10.1511 101.176 10.1511C101.518 10.1511 101.823 10.4359 101.823 10.7763C101.823 11.1352 101.528 11.42 101.176 11.42C100.824 11.42 100.54 11.1352 100.54 10.7763Z" fill="white"/>
<path id="Vector_27" d="M2.21319 28.5608H5.11181V29.5702H0.994141V23.2881H2.21149V28.5608H2.21319Z" fill="white"/>
<path id="Vector_28" d="M6.00591 25.8428L5.8129 25.0997C7.30792 24.4745 9.34813 24.429 9.34813 26.3939V29.5534H8.23067V28.9839C7.79723 29.4338 7.30792 29.6276 6.76274 29.6276C5.97882 29.6276 5.5166 29.0766 5.5166 28.3604C5.5166 27.3123 6.54094 26.5961 8.23914 26.6702V26.4225C8.23914 25.3103 7.0675 25.4401 6.00591 25.8445V25.8428ZM6.55956 28.2222C6.55956 28.5997 6.86433 28.7817 7.24189 28.7817C7.66686 28.7817 7.97163 28.6081 8.23914 28.3503V27.3038C7.09459 27.1842 6.55956 27.7824 6.55956 28.2222Z" fill="white"/>
<path id="Vector_29" d="M14.231 27.2194C14.231 28.5978 13.6672 29.6257 12.4499 29.6257C11.969 29.6257 11.5 29.4151 11.1851 29.0831L11.1766 29.5516H10.0693V23.251H11.1851V25.327C11.4983 24.9967 11.9419 24.8131 12.3855 24.8131C13.613 24.8131 14.231 25.841 14.231 27.2194ZM13.0679 27.2194C13.0679 26.2555 12.6886 25.7129 12.035 25.7129C11.6473 25.7129 11.3341 25.905 11.1851 26.0247V28.4125C11.3324 28.5405 11.6473 28.7242 12.035 28.7242C12.6903 28.7242 13.0679 28.1816 13.0679 27.2177V27.2194Z" fill="white"/>
<path id="Vector_30" d="M17.3594 28.7361C17.8114 28.7361 18.1721 28.6805 18.5784 28.5339L18.8544 29.2973C18.1162 29.609 17.6083 29.6276 17.1562 29.6276C15.4851 29.6276 14.7012 28.6451 14.7012 27.1387C14.7012 25.6322 15.5325 24.6396 16.9073 24.6396C18.2821 24.6396 19.0119 25.7333 18.7714 27.3493H15.8728C15.9101 28.2036 16.3164 28.7361 17.3577 28.7361H17.3594ZM16.8887 25.4215C16.2792 25.4215 15.9101 25.9271 15.8728 26.6702H17.8013C17.8013 25.9271 17.4694 25.4215 16.887 25.4215H16.8887Z" fill="white"/>
<path id="Vector_31" d="M20.0733 25.8428L19.8803 25.0997C21.3753 24.4745 23.4155 24.429 23.4155 26.3939V29.5534H22.2981V28.9839C21.8646 29.4338 21.3753 29.6276 20.8301 29.6276C20.0462 29.6276 19.584 29.0766 19.584 28.3604C19.584 27.3123 20.6083 26.5961 22.3065 26.6702V26.4225C22.3065 25.3103 21.1349 25.4401 20.0733 25.8445V25.8428ZM20.6269 28.2222C20.6269 28.5997 20.9317 28.7817 21.3093 28.7817C21.7342 28.7817 22.039 28.6081 22.3065 28.3503V27.3038C21.162 27.1842 20.6269 27.7824 20.6269 28.2222Z" fill="white"/>
<path id="Vector_32" d="M28.1598 26.3485V29.5536H27.0441V26.7159C27.0441 26.2019 26.8036 25.9441 26.3617 25.9357C25.9554 25.9171 25.5406 26.1463 25.2544 26.3485V29.5536H24.1387V23.29H25.2544V25.3391C25.7167 24.9987 26.1873 24.8252 26.6563 24.8151C27.5334 24.7965 28.1598 25.3206 28.1598 26.3485Z" fill="white"/>
<path id="Vector_33" d="M30.3018 29.3614V28.379C31.4006 28.6081 32.11 28.6907 32.6179 28.6907C33.4019 28.6907 33.8082 28.2964 33.8082 27.8465C33.8082 27.2769 33.1343 27.0848 32.3775 26.8539C31.4548 26.5692 30.4017 26.1917 30.4017 24.9245C30.4017 23.6573 31.3617 23.1973 32.662 23.1973C33.3917 23.1973 34.0469 23.2899 34.8867 23.5275V24.5386C33.8539 24.2454 33.197 24.1797 32.6908 24.1797C31.9983 24.1797 31.6207 24.419 31.6207 24.9228C31.6207 25.4738 32.2844 25.6491 33.0328 25.8698C33.9555 26.1361 35.0256 26.495 35.0256 27.7622C35.0256 29.0294 34.0198 29.663 32.6637 29.663C31.9525 29.663 31.1602 29.599 30.3018 29.3597V29.3614Z" fill="white"/>
<path id="Vector_34" d="M42.4856 26.3484V29.5534H41.3699V26.7157C41.3699 26.2102 41.1396 25.9254 40.6131 25.9254C40.2253 25.9254 39.8562 26.1546 39.5972 26.3568C39.6158 26.4764 39.6158 26.586 39.6158 26.714V29.5518H38.5085V26.714C38.5085 26.2085 38.2782 25.9237 37.7517 25.9237C37.3267 25.9237 36.9678 26.1816 36.7544 26.3467V29.5518H35.6387V24.9413H36.7544V25.5564C37.1693 25.1334 37.6128 24.8486 38.2308 24.8486C38.8488 24.8486 39.2738 25.0963 39.4668 25.612C40.012 25.0879 40.5098 24.8486 41.0905 24.8486C42.0234 24.8486 42.484 25.3811 42.484 26.3467L42.4856 26.3484Z" fill="white"/>
<path id="Vector_35" d="M43.6504 25.8428L43.4574 25.0997C44.9525 24.4745 46.9927 24.429 46.9927 26.3939V29.5534H45.8752V28.9839C45.4418 29.4338 44.9525 29.6276 44.4073 29.6276C43.6234 29.6276 43.1611 29.0766 43.1611 28.3604C43.1611 27.3123 44.1855 26.5961 45.8837 26.6702V26.4225C45.8837 25.3103 44.712 25.4401 43.6504 25.8445V25.8428ZM44.2041 28.2222C44.2041 28.5997 44.5089 28.7817 44.8864 28.7817C45.3114 28.7817 45.6162 28.6081 45.8837 28.3503V27.3038C44.7391 27.1842 44.2041 27.7824 44.2041 28.2222Z" fill="white"/>
<path id="Vector_36" d="M47.7305 29.5537V24.9432H48.8462V25.8245C49.2153 25.1808 49.8249 24.9331 50.4158 24.9331V25.806C49.7876 25.7335 48.9851 26.229 48.8462 26.6519V29.5537H47.7305Z" fill="white"/>
<path id="Vector_37" d="M52.0768 28.3688C52.0768 28.6991 52.2698 28.8372 52.5475 28.8372C52.6677 28.8372 52.8895 28.8187 52.9623 28.7917V29.5905C52.732 29.636 52.2884 29.6629 52.0954 29.6629C51.237 29.6629 50.961 29.2214 50.961 28.4699V25.8883H50.3701L50.5174 25.0525H50.961V23.9319L52.0768 23.6572V25.0525H53.0182L52.8709 25.8883H52.0768V28.3688Z" fill="white"/>
<path id="Vector_38" d="M56.3505 28.0553L55.8612 29.5702H54.6709L57.0243 23.2427H58.0216L60.3005 29.5702H59.0645L58.5668 28.0553H56.3522H56.3505ZM56.5723 27.1555H58.3534L57.4679 24.5099L56.5723 27.1555Z" fill="white"/>
<path id="Vector_39" d="M60.5967 29.3142V28.4869C61.1317 28.7447 61.7971 28.8727 62.2018 28.8727C62.8942 28.8727 63.0788 28.5425 63.0788 28.3133C63.0788 27.9459 62.6352 27.8078 62.129 27.6241C61.4737 27.4033 60.6898 27.1101 60.6898 26.1901C60.6898 25.27 61.3908 24.665 62.7012 24.665C63.3108 24.665 63.8356 24.8218 64.2792 25.0425V25.8598C63.7713 25.575 63.3378 25.4924 62.9958 25.4924C62.2661 25.4924 61.963 25.8227 61.963 26.0991C61.963 26.485 62.4608 26.6316 63.0145 26.8338C63.6612 27.0629 64.3808 27.3663 64.3808 28.192C64.3808 29.1558 63.5596 29.7069 62.4337 29.7069C61.8344 29.7069 61.2248 29.5872 60.5967 29.3126V29.3142Z" fill="white"/>
<path id="Vector_40" d="M64.8428 29.3142V28.4869C65.3778 28.7447 66.0432 28.8727 66.4478 28.8727C67.1403 28.8727 67.3249 28.5425 67.3249 28.3133C67.3249 27.9459 66.8813 27.8078 66.375 27.6241C65.7198 27.4033 64.9359 27.1101 64.9359 26.1901C64.9359 25.27 65.6368 24.665 66.9473 24.665C67.5568 24.665 68.0817 24.8218 68.5253 25.0425V25.8598C68.0174 25.575 67.5839 25.4924 67.2419 25.4924C66.5122 25.4924 66.2091 25.8227 66.2091 26.0991C66.2091 26.485 66.7069 26.6316 67.2605 26.8338C67.9073 27.0629 68.6269 27.3663 68.6269 28.192C68.6269 29.1558 67.8057 29.7069 66.6798 29.7069C66.0804 29.7069 65.4709 29.5872 64.8428 29.3126V29.3142Z" fill="white"/>
<path id="Vector_41" d="M69.1914 23.9504C69.1914 23.637 69.4505 23.3809 69.7721 23.3809C70.0938 23.3809 70.3444 23.6387 70.3444 23.9504C70.3444 24.2622 70.0854 24.5284 69.7721 24.5284C69.4589 24.5284 69.1914 24.2706 69.1914 23.9504ZM70.3444 29.5534H69.2287V25.0626H70.3444V29.5534Z" fill="white"/>
<path id="Vector_42" d="M71.2598 29.3142V28.4869C71.7948 28.7447 72.4602 28.8727 72.8648 28.8727C73.5573 28.8727 73.7419 28.5425 73.7419 28.3133C73.7419 27.9459 73.2983 27.8078 72.792 27.6241C72.1368 27.4033 71.3529 27.1101 71.3529 26.1901C71.3529 25.27 72.0538 24.665 73.3643 24.665C73.9738 24.665 74.4987 24.8218 74.9423 25.0425V25.8598C74.4344 25.575 74.0009 25.4924 73.6589 25.4924C72.9292 25.4924 72.6261 25.8227 72.6261 26.0991C72.6261 26.485 73.1239 26.6316 73.6775 26.8338C74.3243 27.0629 75.0439 27.3663 75.0439 28.192C75.0439 29.1558 74.2227 29.7069 73.0968 29.7069C72.4974 29.7069 71.8879 29.5872 71.2598 29.3126V29.3142Z" fill="white"/>
<path id="Vector_43" d="M76.8795 28.3688C76.8795 28.6991 77.0725 28.8372 77.3502 28.8372C77.4704 28.8372 77.6922 28.8187 77.765 28.7917V29.5905C77.5348 29.636 77.0912 29.6629 76.8981 29.6629C76.0397 29.6629 75.7638 29.2214 75.7638 28.4699V25.8883H75.1729L75.3202 25.0525H75.7638V23.9319L76.8795 23.6572V25.0525H77.8209L77.6736 25.8883H76.8795V28.3688Z" fill="white"/>
<path id="Vector_44" d="M78.6251 25.8428L78.432 25.0997C79.9271 24.4745 81.9673 24.429 81.9673 26.3939V29.5534H80.8498V28.9839C80.4164 29.4338 79.9271 29.6276 79.3819 29.6276C78.598 29.6276 78.1357 29.0766 78.1357 28.3604C78.1357 27.3123 79.1601 26.5961 80.8583 26.6702V26.4225C80.8583 25.3103 79.6866 25.4401 78.6251 25.8445V25.8428ZM79.1787 28.2222C79.1787 28.5997 79.4835 28.7817 79.861 28.7817C80.286 28.7817 80.5908 28.6081 80.8583 28.3503V27.3038C79.7137 27.1842 79.1787 27.7824 79.1787 28.2222Z" fill="white"/>
<path id="Vector_45" d="M82.7051 29.5535V24.943H83.8208V25.366C84.366 24.9987 84.7538 24.8521 85.3345 24.8521C86.2572 24.8521 86.7279 25.3845 86.7279 26.3501V29.5552H85.6122V26.7175C85.6122 26.2119 85.3819 25.9271 84.8553 25.9271C84.4304 25.9271 84.0342 26.185 83.8225 26.3501V29.5552H82.7068L82.7051 29.5535Z" fill="white"/>
<path id="Vector_46" d="M88.7789 28.3688C88.7789 28.6991 88.9719 28.8372 89.2496 28.8372C89.3698 28.8372 89.5916 28.8187 89.6644 28.7917V29.5905C89.4342 29.636 88.9906 29.6629 88.7976 29.6629C87.9391 29.6629 87.6632 29.2214 87.6632 28.4699V25.8883H87.0723L87.2196 25.0525H87.6632V23.9319L88.7789 23.6572V25.0525H89.7203L89.573 25.8883H88.7789V28.3688Z" fill="white"/>
<path id="Vector_47" d="M91.7334 23.29H92.9508V29.5721H91.7334V23.29Z" fill="white"/>
<path id="Vector_48" d="M96.5042 24.291V29.5721H95.2868V24.291H93.5615V23.29H98.2396V24.291H96.5042Z" fill="white"/>
<path id="Vector_49" d="M101.601 29.6627C99.5796 29.6627 98.75 28.35 98.75 26.429C98.75 24.508 99.5813 23.1953 101.601 23.1953C102.348 23.1953 103.051 23.3706 103.733 23.6739V24.6024C102.829 24.326 102.238 24.1979 101.73 24.1979C100.577 24.1979 99.9674 24.9512 99.9674 26.429C99.9674 27.9069 100.577 28.6517 101.73 28.6517C102.238 28.6517 102.829 28.532 103.733 28.2574V29.1859C103.051 29.4892 102.348 29.6627 101.601 29.6627Z" fill="white"/>
</g>
</g>
</svg>
