<svg width="104" height="36" viewBox="0 0 104 36" fill="none" xmlns="http://www.w3.org/2000/svg">
<g id="Group">
<g id="Group_2">
<g id="Group_3">
<path id="Vector" d="M7.07661 20.3353V27.4869L2.29693 20.0792C1.5909 18.994 0.116211 19.1861 0.116211 20.3994V30.296C0.116211 31.4789 1.91259 31.4789 1.91259 30.296V22.7619L6.94797 30.5825C7.55919 31.5093 8.87307 31.3189 8.87307 30.264V20.3337C8.87307 19.0563 7.07661 19.0563 7.07661 20.3337V20.3353Z" fill="white"/>
<path id="Vector_2" d="M17.4068 25.2529C17.4068 23.6251 16.5078 22.1557 12.9167 22.4758C11.5046 22.6039 11.6976 24.3278 12.9793 24.1357C15.5156 23.7515 15.6748 24.8063 15.6748 25.2529V25.5731C13.2367 25.1568 10.7969 25.8612 10.7969 28.2861C10.7969 30.0437 11.8872 31.1289 13.6836 31.1289C15.287 31.1289 17.4695 31.2232 17.4373 28.6063L17.4068 25.2529ZM15.6104 28.9568C15.6104 29.3393 15.2565 29.4994 13.7818 29.4994C12.9149 29.4994 12.4984 29.1168 12.4984 28.3501C12.4984 27.1048 14.2627 26.9464 15.6104 27.2649V28.9584V28.9568Z" fill="white"/>
<path id="Vector_3" d="M23.4371 22.442C22.5398 22.442 21.6085 22.7301 20.8382 23.3047V20.3996C20.8382 19.7289 20.5182 19.3447 19.9069 19.3447C19.3618 19.3447 19.04 19.793 19.04 20.3996V28.6044C19.04 30.5524 20.0356 31.1573 22.9224 31.1573C25.5857 31.1573 26.9317 29.6896 26.9317 26.9108C26.9317 24.1321 25.7126 22.442 23.4354 22.442H23.4371ZM22.924 29.5312C20.9346 29.5312 20.8382 29.4334 20.8382 28.6044V25.3791C21.6729 24.486 22.4111 24.0698 23.2441 24.0698C24.4326 24.0698 25.1048 25.0606 25.1048 26.9749C25.1048 28.8892 24.4953 29.5295 22.924 29.5295V29.5312Z" fill="white"/>
<path id="Vector_4" d="M34.8253 25.2529C34.8253 23.6251 33.928 22.1557 30.3352 22.4758C28.9248 22.6039 29.1161 24.3278 30.3995 24.1357C32.9341 23.7515 33.0933 24.8063 33.0933 25.2529V25.5731C30.6569 25.1568 28.2188 25.8612 28.2188 28.2861C28.2188 30.0437 29.3092 31.1289 31.1056 31.1289C32.709 31.1289 34.8897 31.2232 34.8592 28.6063L34.8253 25.2529ZM33.0306 28.9568C33.0306 29.3393 32.6767 29.4994 31.2003 29.4994C30.3334 29.4994 29.9186 29.1168 29.9186 28.3501C29.9186 27.1048 31.6829 26.9464 33.0306 27.2649V28.9584V28.9568Z" fill="white"/>
<path id="Vector_5" d="M43.4877 19.8569C42.8782 19.8569 42.5565 20.2411 42.5565 20.9118V23.8169C41.7878 23.2423 40.9531 22.9542 40.0557 22.9542C37.7768 22.9542 36.4629 24.614 36.4629 27.4264C36.4629 30.2389 37.8106 31.6729 40.4722 31.6729C43.359 31.6729 44.3546 31.0646 44.3546 29.1183V20.9135C44.3546 20.3069 44.0346 19.8586 43.4877 19.8586V19.8569ZM42.5565 29.1166C42.5565 29.9473 42.4616 30.0434 40.4705 30.0434C38.8993 30.0434 38.2898 29.3407 38.2898 27.4888C38.2898 25.6368 38.9654 24.5837 40.1506 24.5837C40.9853 24.5837 41.7235 24.9999 42.5565 25.893V29.1183V29.1166Z" fill="white"/>
<path id="Vector_6" d="M52.2443 25.2529C52.2443 23.6251 51.3469 22.1557 47.7541 22.4758C46.3437 22.6039 46.5351 24.3278 47.8185 24.1357C50.3531 23.7515 50.5122 24.8063 50.5122 25.2529V25.5731C48.0741 25.1568 45.6377 25.8612 45.6377 28.2861C45.6377 30.0437 46.7281 31.1289 48.5245 31.1289C50.1279 31.1289 52.3086 31.2232 52.2782 28.6063L52.2443 25.2529ZM50.4479 28.9568C50.4479 29.3393 50.094 29.4994 48.6193 29.4994C47.7525 29.4994 47.3359 29.1168 47.3359 28.3501C47.3359 27.1048 49.1018 26.9464 50.4479 27.2649V28.9584V28.9568Z" fill="white"/>
<path id="Vector_7" d="M58.3066 22.4115H56.5102V21.5167C56.5102 20.3675 54.7139 20.3675 54.7139 21.5167V22.4115H54.1043C52.9496 22.4115 52.9496 24.1994 54.1043 24.1994H54.7139V28.1257C54.7139 30.0096 55.7738 31.287 57.472 31.1909L58.0493 31.1572C59.1396 31.0949 59.1396 29.5934 58.1475 29.5294H57.6006C56.9267 29.5294 56.5424 29.0491 56.5424 28.188L56.5085 24.1977H58.305C59.4275 24.1977 59.4275 22.4098 58.305 22.4098L58.3066 22.4115Z" fill="white"/>
</g>
<path id="Vector_8" d="M3.66016 7.29468C3.66016 6.13027 5.46497 6.09657 5.46497 7.29468V7.82717C5.46497 9.02528 3.66016 9.02528 3.66016 7.82717V7.29468Z" fill="white"/>
<path id="Vector_9" d="M6 7.29468C6 6.13027 7.80489 6.09657 7.80489 7.29468V7.82717C7.80489 9.02528 6 9.02528 6 7.82717V7.29468Z" fill="white"/>
<path id="Vector_10" d="M32.5646 4.66751C32.5646 5.86562 30.7598 5.86562 30.7598 4.66751V4.13501C30.7598 2.9706 32.5646 2.9369 32.5646 4.13501V4.66751Z" fill="white"/>
<path id="Vector_11" d="M49.1201 16.4851C49.1201 15.3207 50.9249 15.287 50.9249 16.4851V17.0176C50.9249 18.2157 49.1201 18.2157 49.1201 17.0176V16.4851Z" fill="white"/>
<path id="Vector_12" d="M57.3438 4.13501C57.3438 2.9706 59.1486 2.9369 59.1486 4.13501V4.66751C59.1486 5.86562 57.3438 5.86562 57.3438 4.66751V4.13501Z" fill="white"/>
<g id="Group_4">
<path id="Vector_13" d="M9.50799 10.0259V11.1279C9.50799 11.9267 9.04068 12.3901 8.43962 12.3901H2.95731C2.35626 12.3901 1.88721 11.925 1.88721 11.1279V10.0596C1.88721 8.89518 0.116211 8.89518 0.116211 10.0596V11.2274C0.116211 13.0911 1.22017 14.1561 2.95731 14.1561H8.43962C10.2106 14.1561 11.2806 13.1231 11.2806 11.2274V10.0596C11.2806 8.86148 9.50799 8.89518 9.50799 10.0259Z" fill="white"/>
<path id="Vector_14" d="M57.3758 7.72583V11.1264C57.3758 11.9251 56.9085 12.3885 56.3074 12.3885H51.8274C50.9571 12.3885 50.859 12.124 50.859 10.6933V7.75785C50.859 6.56142 49.088 6.59344 49.088 7.72414V11.1247C49.088 11.9234 48.6189 12.3868 48.0179 12.3868H40.9085C40.0382 12.3868 39.94 12.1223 39.94 10.6916V10.6242V10.2956C39.94 8.43189 38.8124 7.27254 37.0753 7.27254H24.4226C24.0128 7.27254 23.6438 7.32983 23.3136 7.43768C23.0749 6.51592 21.5782 6.62377 21.5782 7.66517V11.0657H21.5816V11.369C21.5816 12.5671 23.3526 12.5334 23.3526 11.4027V10.3007C23.3526 9.50193 23.8198 9.03684 24.4226 9.03684H37.0753C37.6763 9.03684 38.1453 9.50193 38.1453 10.3007L38.1352 10.6242V11.2224C38.1352 11.9875 37.7339 12.3531 37.0313 12.3868H16.6647C15.0613 12.3868 14.7261 12.2874 14.7261 11.2561V2.7396C14.7261 1.54318 12.9551 1.54318 12.9551 2.7396V11.5898C13.0211 13.3878 14.125 14.1528 15.7623 14.1528H37.1006C37.8355 14.1528 38.4704 13.9203 38.9732 13.5192C39.3745 13.9523 40.0095 14.1528 40.9119 14.1528H48.0213C48.7899 14.1528 49.4249 13.954 49.8939 13.5546C50.3273 13.954 50.9623 14.1528 51.8325 14.1528H56.3125C58.0835 14.1528 59.1535 13.0541 59.1535 11.1921V7.75785C59.1535 6.56142 57.3809 6.59344 57.3809 7.72414L57.3758 7.72583Z" fill="white"/>
</g>
</g>
<g id="Group_5">
<g id="Group_6">
<path id="Vector_15" d="M93.7072 0.811968C88.2012 0.279474 82.6935 0.279474 77.1875 0.811968C72.9208 1.28885 68.6558 5.53195 68.1767 9.7801C67.6416 15.2601 67.6416 20.7417 68.1767 26.2217C68.3121 27.4181 68.7472 28.6145 69.3974 29.725C70.3591 29.9997 71.4901 29.9879 72.5093 29.939C78.3184 29.516 84.2749 27.4939 88.6228 23.5862C94.0679 18.4196 96.0149 9.20885 97.1121 1.96458C96.0285 1.35289 94.8671 0.941721 93.7056 0.811968H93.7072ZM75.6705 21.96L75.1304 20.9338C73.9486 18.6876 77.3974 16.8104 78.6113 19.1206L79.1515 20.1469C80.3672 22.4571 76.8844 24.2703 75.6705 21.96ZM81.9672 17.4928L81.4271 16.4666C80.2453 14.2203 83.6942 12.3431 84.9081 14.6534L85.4482 15.6796C86.6639 17.9899 83.1811 19.8031 81.9672 17.4928Z" fill="white"/>
</g>
<path id="Vector_16" d="M100.475 4.81592C100.475 4.81592 100.482 4.82494 100.485 4.83035C100.485 4.83035 100.478 4.82133 100.475 4.81592Z" fill="white"/>
<path id="Vector_17" d="M102.717 9.77994C102.52 8.0426 101.689 6.30694 100.485 4.8291C98.5973 13.2142 95.3312 22.157 88.855 26.5265C84.055 29.7703 78.2951 31.3291 72.5453 31.4234C71.8578 31.415 71.184 31.3965 70.5186 31.3072C72.2523 33.3748 74.7175 34.9133 77.186 35.1896C82.6921 35.7221 88.1998 35.7221 93.7059 35.1896C97.9725 34.7128 102.237 30.4697 102.717 26.2215C103.252 20.7415 103.252 15.2599 102.717 9.77994Z" fill="white"/>
</g>
</g>
</svg>
